<svg width="241" height="293" viewBox="0 0 241 293" fill="none" xmlns="http://www.w3.org/2000/svg">
<g clip-path="url(#clip0_203_7026)">
<path d="M183.618 70.4511C182.346 73.0741 180.662 75.4766 178.631 77.5675C177.831 78.4121 179.35 78.466 179.871 78.466C181.139 78.4448 182.365 78.0058 183.358 77.217C185.552 74.9658 187.372 72.3783 188.75 69.5526C189.172 68.654 186.952 68.9685 186.656 69.0134C185.757 69.1662 184.059 69.5346 183.609 70.4601L183.618 70.4511Z" fill="#221F1F"/>
<path d="M135.547 136.969C133.942 138.633 132.441 140.394 131.054 142.244L130.542 142.935L130.317 143.259C130.317 143.259 130.317 143.259 130.218 143.439C129.975 143.951 129.724 144.472 129.49 144.993C129.023 146.044 128.591 147.114 128.223 148.192C126.69 152.544 125.853 157.111 125.743 161.724C125.743 165.093 125.94 168.633 126.021 172.102C126.345 184.376 126.731 196.668 127.279 208.942C127.531 214.387 127.873 219.859 128.295 225.25C128.834 232.178 129.553 239.123 129.993 246.015C130.137 248.163 129.31 247.992 128.322 246.258C126.908 243.43 126.077 240.347 125.877 237.191C124.673 222.977 124.08 208.789 123.765 194.448C123.604 185.876 123.073 176.981 122.867 168.202C122.813 165.785 122.705 163.404 122.786 160.897C122.892 158.415 123.192 155.946 123.685 153.511C124.169 151.083 124.845 148.698 125.707 146.377C126.129 145.209 126.605 144.077 127.136 142.944L127.531 142.109C127.617 141.921 127.719 141.74 127.837 141.57L128.106 141.174C128.466 140.671 128.834 140.177 129.212 139.692C131.05 137.284 133.085 135.033 135.296 132.962C137.518 130.832 140.036 129.034 142.773 127.624C144.715 126.687 146.512 125.477 148.111 124.03C148.919 123.308 149.681 122.537 150.394 121.721C150.744 121.308 151.086 120.885 151.4 120.463C151.715 120.041 152.002 119.565 152.299 119.106C153.548 117.228 154.708 115.342 156.011 113.473C157.314 111.604 158.59 109.789 159.911 107.983L161.511 105.844L161.717 105.574L161.996 105.224L162.571 104.496C162.958 103.993 163.362 103.598 163.757 103.095C164.123 102.662 164.516 102.254 164.935 101.873C165.283 101.546 165.656 101.245 166.049 100.974C166.654 100.472 167.411 100.191 168.197 100.174C168.425 100.217 168.628 100.345 168.763 100.534C168.866 100.693 168.947 100.865 169.006 101.046C169.102 101.392 169.156 101.748 169.168 102.106C169.19 103.071 169.056 104.032 168.772 104.955C168.415 106.168 167.964 107.351 167.424 108.495L166.283 111.065C165.681 112.448 165.096 113.76 164.485 115.18C162.203 120.319 161.43 121.847 160.252 122.692C160.01 122.908 159.751 123.106 159.48 123.285C159.102 123.482 158.913 122.943 159.039 121.856C159.306 120.271 159.753 118.722 160.369 117.237C161.475 114.353 162.706 111.478 163.964 108.612L164.342 107.713V107.578C164.349 107.516 164.349 107.452 164.342 107.39C164.355 107.355 164.355 107.316 164.342 107.282C164.342 107.282 164.297 107.219 164.225 107.282C164.152 107.359 164.091 107.447 164.045 107.542L163.883 107.749L162.535 109.546C160.666 112.107 158.788 114.749 157.062 117.408L155.103 120.436L154.618 121.2C154.456 121.443 154.294 121.694 154.069 122.018C153.665 122.575 153.261 123.087 152.829 123.581C151.131 125.571 149.161 127.313 146.979 128.757C146.431 129.116 145.855 129.457 145.28 129.781L143.645 130.626L142.917 131.003L142.216 131.443C141.739 131.722 141.317 132.045 140.823 132.342C138.979 133.7 137.262 135.222 135.691 136.888L135.547 136.969Z" fill="#221F1F"/>
<path d="M157.197 203.228C156.505 199.373 155.903 195.509 155.4 191.645C155.22 190.235 154.932 188.833 154.762 187.422C154.177 182.436 153.773 177.44 153.422 172.435C153.261 170.224 153.054 167.996 152.838 165.795C152.454 162.976 152.324 160.128 152.452 157.286C152.605 155.489 155.669 157.672 155.849 160.88C156.181 166.576 156.541 172.273 156.748 178.06C156.882 181.528 157.512 185.077 157.979 188.581C158.5 192.436 159.075 196.291 159.776 200.119C160.19 202.482 160.675 204.836 161.142 207.172C161.924 210.694 162.805 214.288 163.551 217.847C164.153 220.614 164.845 223.31 165.393 226.059C165.519 226.67 165.654 227.254 165.753 227.856C166.121 230.139 165.977 230.893 165.213 231.45C165.049 231.596 164.872 231.725 164.683 231.837C164.072 232.124 163.443 231.262 163.047 229.635C161.87 224.828 160.909 219.752 159.722 214.72C159.273 212.824 158.824 210.919 158.365 209.023C157.907 207.127 157.521 205.15 157.143 203.21L157.197 203.228Z" fill="#221F1F"/>
<path d="M226.253 132.028C208.908 146.773 190.431 142.307 164.8 147.842C164.8 147.842 178.46 139.046 183.897 125.972C186.306 120.176 187.088 111.658 185.632 111.092C183.34 110.194 179.709 120.527 177.966 123.591C175.557 127.832 172.457 131.902 168.251 134.463C167.622 134.841 179.269 111.191 174.129 103.221C174.129 102.484 177.292 98.3691 177.292 98.3691C208.746 93.1846 199.759 73.6774 197.27 71.6198C193.558 68.4839 188.903 69.1219 184.94 70.7213C190.871 60.9902 188.732 48.9139 188.022 46.8203C183.583 33.7736 166.4 37.9698 156.523 39.9825C140.347 43.2711 130.461 46.5148 111.975 39.8477C109.557 43.4418 105.837 48.7881 103.887 52.8495C97.5957 55.1677 96.1219 67.1092 97.1104 71.1795C89.6693 98.2972 98.0091 127.859 132.267 136.323C132.375 136.323 132.034 139.54 123.505 137.985C94.7469 128.713 49.1202 118.586 54.9617 83.0491C57.7297 66.2376 63.7779 56.7221 73.1872 42.6152C76.09 38.2573 93.3449 16.5577 109.135 8.66862C142.521 -7.92727 172.313 9.17179 172.313 9.17179C185.057 5.36202 199.696 4.4545 210.148 14.0958C220.088 23.2967 262.956 100.804 226.253 132.028Z" fill="#221F1F"/>
<path d="M58.2057 100.336C59.6496 103.636 61.6532 106.66 64.1281 109.277C66.634 111.935 69.435 114.298 72.477 116.321C78.7083 120.367 85.3695 123.709 92.3381 126.286C99.294 128.982 106.457 131.255 113.637 133.474L119.029 135.154L121.725 135.999L123.073 136.43L123.747 136.646C123.801 136.651 123.855 136.651 123.909 136.646L124.242 136.691C125.133 136.851 126.033 136.953 126.938 136.996C127.343 137.054 127.755 137.054 128.16 136.996C128.337 136.98 128.501 136.897 128.618 136.763C128.618 136.763 128.681 136.673 128.618 136.646H128.493L128.241 136.574C128.153 136.553 128.065 136.526 127.98 136.493L127.01 136.224L125.617 135.766L124.242 135.235L122.867 134.705L121.519 134.103L120.171 133.501C119.73 133.295 119.272 133.052 118.859 132.836C115.336 131.045 112.044 128.834 109.054 126.25C103.066 121.02 98.5914 114.281 96.0947 106.734C94.7649 102.693 93.9144 98.5104 93.5604 94.2713C93.2321 90.0502 93.3134 85.8074 93.803 81.602C94.0636 79.5084 94.3872 77.4238 94.8275 75.3123C95.0522 74.2879 95.2679 73.2546 95.5465 72.2393C95.6543 71.772 95.87 71.0442 95.8251 71.0981V70.9005C95.7924 70.7553 95.7684 70.6082 95.7532 70.4602L95.6723 69.6156C95.5557 67.4361 95.7127 65.2506 96.1396 63.1102C96.5315 60.9492 97.2306 58.8554 98.2156 56.8924C98.8901 55.5719 99.7869 54.3774 100.867 53.3611C101.153 53.1081 101.453 52.8711 101.765 52.6513C102.079 52.4167 102.42 52.2206 102.781 52.0672L102.907 52.0133H102.961C103.006 52.0133 103.015 51.9594 103.042 51.9235L103.194 51.609L103.437 51.1507C104.722 48.7337 106.133 46.4694 107.643 44.232L109.881 40.9075L111.498 38.5084C112.02 38.6162 112.586 38.8588 113.125 39.0205L114.257 39.4069C116.732 40.2528 119.252 40.9578 121.806 41.5185C124.355 42.0488 126.937 42.3971 129.535 42.5608C132.136 42.6925 134.743 42.6355 137.336 42.39C142.581 41.7704 147.788 40.8705 152.937 39.6944C158.159 38.6611 163.353 37.3942 168.781 36.909C171.518 36.6279 174.279 36.6792 177.004 37.0617C179.842 37.4216 182.53 38.5389 184.787 40.2965C185.907 41.2183 186.861 42.3244 187.609 43.5671C188.37 44.7913 188.931 46.1289 189.271 47.5296C189.826 50.2215 190.07 52.9679 189.999 55.7153C189.958 58.4444 189.593 61.1589 188.912 63.8021C188.714 64.467 188.561 65.1319 188.319 65.7788L187.968 66.7582C187.86 67.0547 187.717 67.4771 187.663 67.5669C187.519 67.8814 187.357 68.2588 187.222 68.5283L187.016 68.8877L186.917 69.0675L186.863 69.1573V69.2022C187.244 69.0471 187.638 68.9239 188.04 68.8338L188.445 68.744C188.705 68.6901 188.966 68.6631 189.226 68.6272C189.757 68.5537 190.291 68.5117 190.826 68.5014C193.021 68.4399 195.181 69.0684 197 70.2984C197.486 70.6161 197.93 70.9934 198.321 71.4216C198.659 71.857 198.959 72.3199 199.22 72.8054C199.724 73.7348 200.139 74.7095 200.46 75.7166C201.097 77.7269 201.344 79.8404 201.188 81.9434C201.016 84.0667 200.361 86.1227 199.274 87.9546C198.19 89.7526 196.779 91.3313 195.113 92.609C191.811 95.0385 188.069 96.8052 184.095 97.8115C183.061 98.126 182.01 98.3506 180.958 98.5932C180.437 98.728 179.907 98.8268 179.377 98.9167L177.93 99.1863H177.75L177.633 99.33L177.238 99.8602L176.339 101.136C176.034 101.558 175.746 102.035 175.44 102.412L175.243 102.735L175.144 102.915C175.099 103.014 174.991 103.149 175.063 103.257C175.135 103.364 175.153 103.409 175.198 103.499C175.243 103.589 175.36 103.85 175.431 104.029C175.586 104.404 175.715 104.788 175.818 105.179C176.011 105.939 176.134 106.715 176.186 107.498C176.285 109.018 176.233 110.543 176.034 112.053C175.629 115.007 174.983 117.922 174.101 120.769C173.679 122.18 173.203 123.581 172.726 124.974L171.98 127.05L171.261 128.946L170.471 130.904L170.282 131.39C170.247 131.471 170.217 131.556 170.192 131.641C170.192 131.713 170.192 131.641 170.264 131.641L170.381 131.569C170.677 131.379 170.962 131.172 171.235 130.949C171.704 130.574 172.142 130.163 172.547 129.718L173.059 129.143L173.643 128.442C174.02 127.966 174.389 127.472 174.748 126.978C175.458 125.989 176.123 124.956 176.744 123.896C177.058 123.357 177.346 122.863 177.642 122.314C177.939 121.766 178.163 121.209 178.424 120.643C179.449 118.379 180.419 116.079 181.65 113.832C181.965 113.247 182.313 112.68 182.693 112.134C183.156 111.37 183.822 110.748 184.616 110.337C184.98 110.173 185.388 110.136 185.775 110.229C185.966 110.285 186.144 110.378 186.298 110.503C186.452 110.627 186.58 110.782 186.674 110.957C187.075 111.753 187.273 112.636 187.249 113.527C187.262 115.673 187.048 117.814 186.611 119.915C186.218 122.005 185.631 124.053 184.859 126.034C183.215 129.936 180.998 133.57 178.28 136.817C176.948 138.446 175.526 140 174.02 141.471C173.275 142.217 172.511 142.927 171.729 143.637L171.136 144.158L170.695 144.535L170.21 144.94C169.877 145.209 169.554 145.47 169.212 145.712L168.709 146.072H168.862L169.177 146.009L170.408 145.766L172.07 145.488C180.302 144.113 188.615 143.691 196.775 142.63C200.837 142.165 204.857 141.39 208.8 140.312C212.702 139.196 216.444 137.583 219.935 135.514C220.995 134.831 221.93 134.274 222.694 133.771C223.458 133.268 224.033 132.791 224.491 132.468C225.462 131.812 225.938 131.569 225.956 131.713C225.974 131.857 225.543 132.36 224.689 133.205C224.257 133.627 223.727 134.103 223.098 134.723L220.753 136.52C219.776 137.248 218.752 137.912 217.688 138.506C216.447 139.238 215.166 139.901 213.851 140.492C213.131 140.832 212.393 141.132 211.64 141.39C210.876 141.669 210.094 142.019 209.267 142.289L206.706 143.062C205.807 143.34 204.909 143.511 204.01 143.744C196.569 145.542 187.735 146.117 178.361 147.267C176.618 147.518 174.856 147.707 173.122 148.003L171.81 148.21L170.552 148.417C170.111 148.489 169.653 148.561 169.212 148.65L163.919 149.702L158.662 150.708L158.329 150.771L158.428 150.69L158.851 150.376L159.749 149.666L161.825 148.084L166.444 144.616C167.217 144.041 167.954 143.475 168.619 142.9L169.824 141.858C174.982 137.239 179.583 131.821 182.253 125.567C183.527 122.409 184.318 119.077 184.598 115.683C184.598 115.261 184.661 114.848 184.67 114.434V113.707L184.589 113.823C184.136 114.519 183.722 115.238 183.349 115.98C182.558 117.507 181.839 119.116 181.111 120.742C180.743 121.56 180.374 122.377 179.979 123.213C179.772 123.635 179.556 124.067 179.305 124.507L178.604 125.693C177.649 127.294 176.573 128.82 175.386 130.258C175.081 130.644 174.82 130.94 174.434 131.372C173.841 131.983 173.221 132.639 172.636 133.169C171.553 134.172 170.38 135.074 169.132 135.864L168.52 136.188C168.43 136.241 168.334 136.284 168.233 136.314H168.044H167.658C167.55 136.269 167.523 136.152 167.451 136.08L167.352 135.963L167.307 135.9L167.496 135.631H167.406L167.19 135.568L166.957 135.505C166.883 135.454 166.819 135.39 166.768 135.316C166.686 135.183 166.632 135.035 166.61 134.88C166.589 134.726 166.6 134.568 166.642 134.418C166.688 134.146 166.754 133.879 166.84 133.618L167.226 132.63L168.853 128.595L169.752 126.277L170.489 124.246C170.962 122.893 171.408 121.527 171.828 120.149C172.679 117.441 173.304 114.667 173.697 111.856C173.878 110.504 173.926 109.137 173.841 107.776C173.8 107.14 173.7 106.508 173.544 105.889C173.468 105.6 173.374 105.315 173.266 105.036L173.185 104.829C173.164 104.799 173.149 104.765 173.14 104.73L173.059 104.586C172.906 104.29 172.699 103.975 172.529 103.688C172.584 103.109 172.745 102.546 173.005 102.026L173.221 101.648L173.364 101.424L173.634 100.992C174.002 100.435 174.371 99.9051 174.748 99.3839L175.315 98.6112L176.07 97.6048C176.339 96.9579 177.049 97.0567 177.642 96.895L178.541 96.7243C180.943 96.3016 183.31 95.7009 185.623 94.9272C187.903 94.193 190.085 93.1821 192.12 91.9171C194.088 90.713 195.768 89.0939 197.045 87.1729C198.268 85.2738 198.914 83.061 198.905 80.8023C198.901 78.5063 198.346 76.2448 197.288 74.2071C197.06 73.7479 196.779 73.3167 196.452 72.9222C196.288 72.7673 196.114 72.6232 195.931 72.4909C195.717 72.3299 195.495 72.1799 195.266 72.0416C194.345 71.4816 193.316 71.1233 192.246 70.9903C191.133 70.8522 190.005 70.8886 188.903 71.0981L188.256 71.2239C187.977 71.2868 187.69 71.3767 187.357 71.4665L186.458 71.7361C186.171 71.8259 185.847 71.9697 185.56 72.0775L181.983 73.3265C182.711 71.9158 183.735 70.2355 184.391 68.8338L185.425 66.7492L185.551 66.4887C185.551 66.4168 185.596 66.3809 185.623 66.3269L185.73 66.0214L185.955 65.4014C186.279 64.5928 186.476 63.7392 186.728 62.8945C186.98 62.0499 187.141 61.1873 187.258 60.3068C187.82 56.8004 187.856 53.2301 187.366 49.7131C187.285 49.1111 187.177 48.509 187.052 47.916C186.98 47.6195 186.917 47.3769 186.836 47.1163L186.521 46.2986C186.085 45.2273 185.495 44.2254 184.769 43.3245C183.256 41.5361 181.229 40.2563 178.963 39.6585C176.594 39.0088 174.138 38.7329 171.684 38.8408C169.155 38.9238 166.636 39.185 164.144 39.6226C161.618 40.0359 159.102 40.566 156.55 41.0872L148.92 42.7764C143.767 43.9532 138.518 44.6599 133.238 44.888C127.891 44.9774 122.56 44.2718 117.421 42.7944C116.145 42.426 114.859 42.0755 113.61 41.6353L112.469 41.2489C112.379 41.2489 112.343 41.3927 112.271 41.4556L111.876 42.0396C110.411 44.2051 108.964 46.3705 107.598 48.5719C106.924 49.6681 106.268 50.7823 105.657 51.9055L105.216 52.7501L104.911 53.3611L104.731 53.7295C104.614 53.8014 104.479 53.8553 104.363 53.9182L103.365 54.3944L102.691 54.8886C101.794 55.6385 101.05 56.5536 100.498 57.5842C99.9038 58.6567 99.4249 59.7892 99.0694 60.9627C98.3382 63.354 97.9597 65.8391 97.946 68.3396V69.2382L98.0269 70.1367C98.0269 70.2895 98.0808 70.4242 98.0988 70.559L98.1617 70.9005C98.1922 71.0302 98.2103 71.1626 98.2156 71.2958L97.9819 72.428C97.6404 73.659 97.3708 74.9169 97.0832 76.1659C95.7877 82.3306 95.4242 88.6547 96.0048 94.9272C96.565 101.18 98.3644 107.258 101.298 112.808C104.266 118.335 108.452 123.116 113.538 126.789C116.077 128.624 118.786 130.213 121.627 131.533L123.774 132.495L125.976 133.393C126.704 133.69 127.468 133.897 128.214 134.148C128.484 134.238 129.203 134.49 129.823 134.66L131.701 135.172L133.085 136.134L133.256 136.251C133.256 136.314 133.319 136.43 133.256 136.511C133.237 136.695 133.188 136.874 133.112 137.041C132.976 137.379 132.771 137.686 132.51 137.94C131.955 138.486 131.267 138.876 130.515 139.072C129.608 139.343 128.666 139.477 127.72 139.467C126.399 139.46 125.082 139.336 123.783 139.099C123.604 139.099 123.496 139.099 123.235 139.009L122.723 138.847L121.824 138.56L120.027 137.985C115.21 136.475 110.375 135.011 105.549 133.492C100.723 131.974 95.9329 130.293 91.1698 128.451C86.4175 126.602 81.7888 124.45 77.312 122.009C71.084 118.613 65.0897 114.425 60.5603 108.765C58.2765 105.942 56.495 102.747 55.2939 99.321C54.122 95.8866 53.5564 92.2747 53.6224 88.6465C53.6224 87.7479 53.6224 86.8494 53.7482 85.9509L54.0807 83.2553C54.3683 81.4582 54.6918 79.751 55.0872 78.0168C55.8535 74.5361 56.8717 71.1157 58.1338 67.7826C60.7638 61.1805 64.093 54.8789 68.0644 48.9853C69.4574 46.8108 70.8953 44.6633 72.3242 42.5248C73.7531 40.3863 75.4157 38.3287 77.0513 36.316C80.3406 32.3205 83.8035 28.4748 87.4402 24.7788C91.0706 21.07 94.9403 17.6032 99.0244 14.4008C101.078 12.7851 103.22 11.2852 105.441 9.90809C106.555 9.23419 107.733 8.63218 108.874 8.00321C110.015 7.37424 111.22 6.88004 112.415 6.37686C121.996 2.21874 132.402 0.30703 142.836 0.787991C148.023 1.03062 153.171 1.81665 158.194 3.13316C160.699 3.77086 163.168 4.5417 165.591 5.44239C166.804 5.89165 168.008 6.34092 169.186 6.89801C169.779 7.15859 170.372 7.42815 170.983 7.70669C171.594 7.98524 172.259 8.34465 172.466 8.46146L174.371 7.93133C175.099 7.73365 175.836 7.56293 176.573 7.38322C180.622 6.39602 184.771 5.87151 188.939 5.81978C193.127 5.74732 197.294 6.42596 201.242 7.8235C205.214 9.24749 208.808 11.5619 211.748 14.5894C213.112 16.1524 214.375 17.8 215.531 19.5224C216.693 21.2116 217.802 22.9338 218.856 24.689C223.07 31.6841 226.797 38.9615 230.009 46.4694C233.27 53.9664 235.974 61.6938 238.097 69.5886C240.015 76.5413 241.249 83.6645 241.782 90.8569C242.218 96.5775 241.916 102.33 240.883 107.974C240.156 111.844 238.924 115.603 237.217 119.152C236.097 121.479 234.72 123.673 233.11 125.693C232.463 126.511 231.825 127.176 231.249 127.805C230.674 128.433 230.081 128.937 229.515 129.404C228.949 129.871 228.418 130.302 227.87 130.743C227.322 131.183 226.792 131.515 226.459 131.713C225.902 132.055 225.974 131.821 226.612 131.102C226.927 130.734 227.421 130.275 227.96 129.629L228.859 128.577L229.91 127.292C231.805 124.924 233.433 122.354 234.763 119.628C235.617 117.846 236.358 116.012 236.983 114.138C237.673 111.986 238.222 109.792 238.628 107.57C239.583 102.047 239.834 96.4249 239.374 90.8389C238.924 85.1693 238.022 79.5445 236.677 74.0184C233.907 62.7933 229.992 51.8819 224.994 41.4556C222.508 36.1722 219.758 31.0171 216.753 26.0098C215.235 23.5119 213.653 21.0499 211.936 18.7317C211.115 17.5996 210.214 16.5276 209.24 15.5239C208.213 14.5811 207.116 13.7161 205.96 12.9362C201.192 9.82644 195.62 8.17745 189.927 8.1919C187.035 8.15215 184.145 8.36864 181.291 8.83885C179.853 9.05449 178.424 9.35999 176.995 9.68346C176.285 9.86317 175.566 10.0249 174.865 10.2226L172.07 11.0043C171.711 10.8066 171.342 10.591 170.974 10.4023L170.435 10.1237L169.338 9.59361C168.601 9.25217 167.855 8.91971 167.101 8.60523C165.591 7.98524 164.045 7.40119 162.481 6.88005C159.343 5.84137 156.14 5.00993 152.892 4.39111C146.36 3.15406 139.685 2.85153 133.067 3.49258C130.287 3.78704 127.527 4.24004 124.799 4.84936C122.081 5.48935 119.404 6.29352 116.783 7.25743C115.453 7.70669 114.185 8.29972 112.882 8.81188L110.977 9.71042C110.348 9.99795 109.71 10.2945 109.117 10.6089L107.319 11.6063C106.717 11.9298 106.142 12.3431 105.522 12.7025C104.902 13.0619 104.336 13.4393 103.725 13.8437L102.017 15.0747C97.4866 18.4488 93.2314 22.1775 89.2916 26.2254C85.2945 30.2649 81.5061 34.5054 77.941 38.9307C77.0423 40.0359 76.1436 41.1501 75.3438 42.2732C74.544 43.3964 73.7621 44.5735 72.9623 45.7685C71.3806 48.1496 69.7989 50.5307 68.307 52.9568C66.8152 55.3828 65.3683 57.8178 64.0562 60.3068C62.7448 62.795 61.5718 65.3538 60.5423 67.9712C59.5157 70.5833 58.6543 73.2572 57.9631 75.9772C57.2495 78.6952 56.6944 81.4523 56.3005 84.2347L56.0399 86.2833C55.9859 86.9662 55.9859 87.6491 55.959 88.341L55.914 89.3653C55.914 89.7067 55.914 90.0482 55.968 90.3896C55.968 91.0635 56.0309 91.7464 56.0938 92.4293C56.4098 95.1283 57.0962 97.7709 58.1338 100.282L58.2057 100.336Z" fill="#221F1F"/>
<path d="M168.745 155.093C168.125 154.554 167.602 153.912 167.199 153.197C166.817 152.539 166.539 151.827 166.372 151.085C166.346 150.97 166.355 150.85 166.397 150.74C166.439 150.629 166.512 150.534 166.608 150.465C166.703 150.396 166.817 150.357 166.935 150.352C167.053 150.347 167.17 150.377 167.271 150.438C168.128 151.022 168.953 151.652 169.742 152.325C169.985 152.523 171.827 154.437 173.786 156.692C175.745 158.947 177.857 161.517 178.918 162.829C180.967 165.381 182.854 168.058 184.66 170.79C186.467 173.521 188.255 176.397 189.918 179.299C191.602 182.219 193.103 185.241 194.411 188.347C194.986 189.686 195.517 191.043 196.02 192.409C197.763 197.099 199.74 201.708 201.727 206.327C202.04 207.103 202.394 207.861 202.787 208.6C203.129 209.175 204.584 212.626 205.977 216.175C207.37 219.724 208.674 223.363 208.898 224.262C210.156 228.494 211.343 232.762 212.322 237.084C212.506 237.684 212.632 238.301 212.7 238.926C212.788 240.282 213.008 241.628 213.356 242.942C213.724 244.802 214.057 246.671 214.254 248.549C214.353 249.447 214.326 250.427 214.335 251.352C214.344 252.278 213.805 251.811 213.706 251.532C213.428 250.714 213.32 251.424 213.14 251.532C212.96 251.64 213.005 251.613 212.942 251.577C212.879 251.541 212.736 250.894 212.475 249.888C212.358 249.385 212.205 248.8 212.053 248.171L211.495 246.186L210.938 244.155C210.732 243.499 210.543 242.879 210.372 242.358C210.031 241.235 209.788 240.39 209.716 240.112C209.716 240.04 209.41 239.051 208.997 237.587C208.584 236.122 207.955 234.181 207.343 232.196C206.022 228.26 204.504 224.19 204.162 223.372C203.821 222.554 203.56 221.575 203.263 220.73C203.182 220.515 201.996 217.514 200.72 214.521C199.444 211.529 198.132 208.546 198.024 208.313C197.053 205.905 195.921 203.55 195.157 201.061C194.989 200.569 194.794 200.086 194.573 199.615C193.674 197.557 192.776 195.491 191.94 193.415C191.104 191.339 190.268 189.228 189.406 187.269C188.543 185.31 187.392 183.271 186.26 181.321C186.062 180.97 185.901 180.593 185.712 180.224C185.523 179.856 185.245 179.326 184.975 178.877C182.242 174.253 179.257 169.784 176.033 165.489C175.296 164.5 171.98 159.594 171.009 158.552C170.578 157.914 169.275 155.605 168.745 155.093Z" fill="#221F1F"/>
<path d="M130.55 137.904C130.307 138.578 126.622 146.656 125.652 149.971C124.397 154.462 123.652 159.079 123.432 163.737C105.908 160.745 100.246 155.174 97.999 148.776C106.258 143.385 113.762 138.812 122.506 137.994C125.181 137.757 127.87 137.727 130.55 137.904Z" fill="#221F1F"/>
<path d="M129.58 135.658C129.524 135.649 129.466 135.649 129.41 135.658C129.117 135.737 128.814 135.774 128.511 135.766C127.127 135.766 125.734 135.766 124.35 135.829C123.658 135.829 122.966 135.91 122.274 135.981C121.582 136.053 120.863 136.125 120.162 136.251C117.389 136.718 114.676 137.493 112.074 138.56C109.524 139.62 107.047 140.848 104.66 142.235C103.482 142.918 102.314 143.619 101.173 144.338L99.4562 145.416L98.6114 145.964L97.0837 147.006L95.502 148.067L96.1939 149.864L96.5444 150.762C96.5973 150.915 96.6635 151.062 96.7421 151.203L96.9219 151.589C97.076 151.931 97.25 152.264 97.4431 152.586C98.1838 153.895 99.0899 155.103 100.139 156.18C102.191 158.26 104.598 159.955 107.248 161.185C109.777 162.367 112.405 163.324 115.102 164.043L117.098 164.564L119.102 165.013L119.596 165.13L119.848 165.184L120.252 165.265L121.942 165.579L125.321 166.217L125.518 163.198L125.626 161.697L125.707 160.871C125.806 159.864 125.923 158.867 126.067 157.87C126.342 155.884 126.732 153.916 127.235 151.975C127.361 151.499 127.495 151.014 127.63 150.547C127.765 150.079 127.918 149.648 128.089 149.181C128.421 148.282 128.808 147.294 129.185 146.35C129.967 144.455 130.785 142.559 131.612 140.663C131.721 140.409 131.873 140.175 132.061 139.971C132.099 139.929 132.129 139.88 132.151 139.827C132.2 139.656 132.2 139.474 132.151 139.302C132.101 139.13 132.005 138.976 131.872 138.857C131.532 138.435 131.076 138.123 130.56 137.958C130.064 137.775 129.542 137.672 129.014 137.653C128.583 137.653 128.25 137.796 128.116 138.075C128.106 138.125 128.106 138.177 128.116 138.228C128.083 138.516 128.008 138.798 127.891 139.063L126.453 142.406C125.761 144.05 125.069 145.704 124.422 147.429C124.26 147.851 124.107 148.327 123.955 148.75C123.802 149.172 123.667 149.648 123.55 150.115C123.299 151.014 123.074 151.912 122.876 152.811C122.481 154.608 122.175 156.405 121.977 158.202C121.861 159.101 121.762 159.999 121.672 160.898V161.329L121.124 161.23L120.854 161.176L120.045 160.997L118.14 160.565L116.262 160.071C113.793 159.419 111.388 158.55 109.072 157.474C106.868 156.452 104.863 155.047 103.15 153.323C102.341 152.483 101.646 151.541 101.083 150.52C100.932 150.268 100.797 150.007 100.678 149.738C100.678 149.639 100.678 149.675 100.625 149.63C100.571 149.585 100.625 149.585 100.625 149.567H100.687L103.383 147.833C104.498 147.138 105.621 146.464 106.754 145.811C108.981 144.514 111.293 143.367 113.674 142.379C116.003 141.423 118.433 140.733 120.917 140.321C121.537 140.213 122.157 140.169 122.768 140.088C123.379 140.007 124.053 139.98 124.692 139.944C125.968 139.881 127.253 139.863 128.538 139.899C128.803 139.901 129.065 139.953 129.311 140.052C129.364 140.066 129.42 140.066 129.473 140.052C130.03 140.052 130.551 139.153 130.632 137.922C130.713 136.691 130.192 135.685 129.58 135.658Z" fill="#232020"/>
<path d="M24.0466 246.168C22.9752 248.055 21.4253 249.626 19.5531 250.724C19.0139 251.047 18.4837 250.517 18.8162 249.897C19.4723 248.675 20.1373 247.462 20.8562 246.258C21.0539 245.881 23.094 242.934 25.2688 239.51C26.3652 237.812 27.4796 235.979 28.4951 234.353L30.9576 230.264C33.2043 226.428 35.505 222.636 37.8056 218.817C42.4878 211.054 47.0712 203.2 51.9331 195.455C53.0025 193.73 54.1529 192.05 55.3032 190.387L58.3049 186.119L61.4053 181.878C63.5173 179.084 65.6741 176.334 67.9119 173.648C68.6668 172.749 69.4577 171.851 70.1137 170.952C72.5429 168.017 75.1195 165.207 77.8335 162.533C81.59 158.804 85.6431 155.273 86.6227 154.518C91.4029 150.667 96.4715 147.189 101.784 144.113C102.514 143.636 103.284 143.221 104.084 142.873C104.976 142.571 105.844 142.205 106.682 141.777C107.526 141.363 108.353 140.878 109.243 140.555C110.465 140.043 111.66 139.495 112.901 139.045L116.684 137.868C117.962 137.618 119.252 137.432 120.548 137.311C121.699 137.167 121.16 137.769 120.782 137.913C119.686 138.326 120.647 138.317 120.782 138.488C120.917 138.659 120.89 138.614 120.845 138.677C120.642 138.768 120.431 138.843 120.216 138.901L118.589 139.414L117.511 139.746L116.325 140.231L113.736 141.292C112.838 141.687 112.002 142.19 111.175 142.567C110.348 142.945 109.53 143.349 108.856 143.789C107.49 144.598 106.448 145.209 106.097 145.389C106.052 145.389 105.72 145.587 105.199 145.901L103.051 147.249C101.253 148.318 98.9977 149.944 96.6881 151.616L93.3449 154.221C92.2575 155.075 91.278 155.956 90.3703 156.71C88.5729 158.211 87.2788 159.478 86.8204 159.882C85.9217 160.781 84.8792 161.536 83.9356 162.398L81.7698 164.519C80.5386 165.705 79.0737 167.358 77.501 168.957C75.9283 170.557 74.5173 172.264 73.4029 173.567L71.4168 175.93C69.0802 178.626 66.9772 181.474 64.6406 184.134C64.184 184.676 63.7609 185.247 63.3735 185.841C59.8955 190.837 56.4985 196.003 53.1913 201.188C51.5017 203.883 49.902 206.579 48.2664 209.275C47.9788 209.76 47.6463 210.227 47.3677 210.703C47.0891 211.179 46.5679 211.898 46.2084 212.5C42.398 218.934 38.4257 225.295 34.5254 231.729C34.085 232.475 32.6651 234.532 31.2362 236.617C29.8072 238.701 28.2974 240.786 27.7402 241.622C27.4437 242.089 26.6618 243.005 25.9429 243.913C25.2641 244.624 24.6307 245.377 24.0466 246.168Z" fill="#221F1F"/>
<path d="M167.891 234.281C167.415 234.191 167.298 233.715 167.325 232.96C167.325 232.717 167.657 232.169 167.828 232.169C168.147 232.154 168.467 232.175 168.781 232.232C169.986 232.785 171.123 233.476 172.169 234.29C172.911 234.845 173.584 235.488 174.173 236.204C175.374 237.628 176.45 239.152 177.39 240.759C177.602 241.112 177.776 241.485 177.912 241.873C178.388 243.203 178.954 244.47 179.502 245.764C179.57 245.989 179.68 246.2 179.826 246.384C180.198 247.063 180.479 247.788 180.662 248.541C180.904 249.305 181.078 250.09 181.183 250.886C181.25 252.134 181.25 253.385 181.183 254.633C181.208 254.81 181.183 254.99 181.111 255.154C180.915 255.497 180.824 255.891 180.85 256.286C180.85 256.546 180.85 256.816 180.769 257.077C180.688 257.337 180.644 257.589 180.572 257.849C180.467 258.104 180.328 258.343 180.158 258.559C180.023 258.766 179.646 258.559 179.619 258.487C179.52 258.245 179.313 258.397 179.143 258.388C179.086 258.398 179.029 258.398 178.972 258.388C178.846 257.914 178.762 257.43 178.72 256.942C178.585 256.415 178.477 255.881 178.397 255.342C178.397 255.342 178.397 255.073 178.325 254.696C178.253 254.318 178.244 253.797 178.118 253.294C177.992 252.791 177.912 252.26 177.804 251.847L177.552 251.003C177.497 250.773 177.47 250.538 177.471 250.302C177.471 250.248 177.184 249.475 176.905 248.711C176.626 247.948 176.249 247.202 176.24 247.139C175.961 246.543 175.756 245.915 175.629 245.27C175.612 245.14 175.569 245.015 175.503 244.902C175.224 244.407 174.982 243.895 174.748 243.383L173.975 241.864C173.68 241.369 173.359 240.889 173.014 240.427C172.966 240.333 172.924 240.237 172.888 240.139C172.841 240.014 172.778 239.896 172.699 239.789C171.917 238.679 171.013 237.66 170.003 236.752C169.754 236.498 169.523 236.228 169.311 235.943C169.076 235.667 168.814 235.414 168.529 235.188C168.367 235.063 168.08 234.299 167.891 234.281Z" fill="#221F1F"/>
<path d="M174.075 237.605C173.805 237.695 173.679 237.38 173.616 236.805C173.602 236.538 173.664 236.273 173.796 236.041C173.964 235.936 174.142 235.845 174.326 235.772C175.027 235.79 175.726 235.85 176.42 235.951C176.909 236.017 177.386 236.147 177.84 236.338C178.79 236.703 179.712 237.135 180.599 237.632C180.799 237.746 180.983 237.884 181.147 238.045C181.723 238.611 182.352 239.087 182.945 239.617C183.038 239.724 183.155 239.807 183.286 239.86C183.678 240.118 184.011 240.455 184.266 240.848C184.577 241.246 184.82 241.692 184.985 242.169C185.181 242.928 185.26 243.713 185.218 244.496C185.218 244.604 185.218 244.721 185.156 244.82C184.931 245.045 184.985 245.26 184.949 245.485C184.913 245.796 184.828 246.099 184.697 246.383C184.608 246.524 184.492 246.646 184.356 246.743C184.239 246.851 183.933 246.698 183.906 246.644C183.879 246.59 183.655 246.563 183.52 246.545H183.385C183.286 246.297 183.208 246.042 183.151 245.781C183.053 245.413 182.9 245.081 182.891 245.018C182.907 244.919 182.907 244.819 182.891 244.721C182.854 244.517 182.794 244.318 182.711 244.128C182.595 243.806 182.431 243.503 182.226 243.23C182.17 243.139 182.133 243.038 182.118 242.933C181.969 242.726 181.797 242.536 181.606 242.367C181.327 242.106 181.013 241.882 180.995 241.855C180.788 241.63 180.491 241.495 180.357 241.145C180.357 241.073 180.276 241.046 180.213 241.01C179.736 240.705 179.314 240.345 178.793 240.022C178.533 239.867 178.263 239.732 177.984 239.617C177.93 239.617 177.903 239.537 177.849 239.51C177.798 239.46 177.741 239.418 177.678 239.384C177.024 239.056 176.337 238.797 175.629 238.611C175.283 238.418 174.926 238.244 174.56 238.09C174.443 238.009 174.191 237.569 174.075 237.605Z" fill="#221F1F"/>
<path d="M106.78 253.195C108.985 252.901 111.163 252.527 113.314 252.071C115.441 251.602 117.541 251.017 119.605 250.319C121.66 249.611 123.658 248.746 125.581 247.731C126.066 247.489 126.524 247.21 126.992 246.932L127.684 246.518C127.917 246.384 128.187 246.222 128.25 246.168C128.96 245.584 129.805 244.748 130.578 243.985C131.728 242.834 132.842 241.63 133.939 240.39L135.556 238.593L136.329 237.695C136.59 237.362 136.922 236.994 137.228 236.689C137.713 236.185 138.207 235.7 138.738 235.233C138.935 235.053 139.439 234.631 139.879 234.334C140.309 234.018 140.774 233.749 141.263 233.535C141.669 233.32 142.119 233.2 142.578 233.184C143.038 233.169 143.494 233.258 143.914 233.445C144.317 233.664 144.648 233.994 144.867 234.397C145.077 234.785 145.211 235.208 145.262 235.646C145.294 236.489 145.234 237.333 145.083 238.162L145.029 238.468V238.665L144.948 239.07C144.885 239.339 144.831 239.609 144.759 239.878C144.615 240.417 144.444 240.948 144.256 241.478L143.986 242.179L143.869 242.412C143.692 242.747 143.461 243.05 143.186 243.311L143.078 243.419C143.074 243.429 143.071 243.44 143.072 243.451C143.073 243.462 143.077 243.473 143.084 243.482C143.09 243.491 143.099 243.498 143.109 243.503C143.119 243.508 143.13 243.509 143.141 243.508H143.402L143.932 243.427L144.624 243.311L145.181 243.203L146.08 243.014C147.275 242.763 148.462 242.493 149.675 242.197C150.888 241.9 152.02 241.577 153.153 241.208C153.719 241.019 154.276 240.822 154.815 240.606C155.336 240.385 155.844 240.133 156.334 239.851C157.377 239.244 158.345 238.517 159.219 237.686C159.668 237.264 160.118 236.787 160.504 236.365C160.711 236.131 160.9 235.889 161.097 235.655L161.403 235.269L161.843 234.685C162.122 234.262 162.409 233.867 162.688 233.427L163.101 232.753C163.213 232.535 163.348 232.33 163.506 232.142C163.937 231.615 164.399 231.114 164.89 230.641C164.975 230.55 165.065 230.463 165.159 230.381C165.277 230.3 165.4 230.228 165.528 230.165C165.804 230.018 166.113 229.944 166.426 229.95C166.606 229.95 166.779 230.018 166.912 230.138C167.017 230.23 167.105 230.339 167.172 230.462L167.577 231.261C167.685 231.594 167.766 231.98 167.855 232.349C167.996 233.334 168.014 234.333 167.909 235.323C167.887 235.597 167.848 235.87 167.793 236.14C167.73 236.428 167.703 236.698 167.613 236.985C167.466 237.566 167.28 238.137 167.056 238.692C166.74 239.478 166.359 240.236 165.914 240.957C165.699 241.316 165.456 241.675 165.24 241.99L165.168 242.098H165.087L164.602 241.855L164.359 241.738L165.168 242.143V242.188L165.114 242.277L165.016 242.439C164.899 242.659 164.76 242.867 164.602 243.059C164.072 243.742 163.469 244.366 162.805 244.919C162.176 245.467 161.52 245.943 160.864 246.411C159.548 247.333 158.17 248.161 156.739 248.891C156.391 249.086 156.01 249.217 155.615 249.277C155.31 249.277 155.13 249.232 155.094 249.079C155.181 248.466 155.45 247.893 155.867 247.435C156.601 246.46 157.402 245.538 158.266 244.676C158.779 244.155 159.336 243.607 159.911 243.05C160.486 242.493 161.088 241.909 161.592 241.352C161.698 241.248 161.794 241.133 161.879 241.01L162.014 240.84L162.086 240.714V240.66V240.57L162.203 240.372L162.284 240.247L162.391 240.103L162.715 239.618C163.118 239.02 163.47 238.389 163.766 237.731C163.973 237.264 163.883 237.452 163.901 237.416C163.901 237.416 163.901 237.326 163.901 237.362L163.775 237.515C163.344 238.045 162.877 238.557 162.409 239.061C161.448 240.066 160.385 240.97 159.237 241.756C158.065 242.572 156.794 243.233 155.453 243.724C154.168 244.191 152.91 244.551 151.652 244.883C150.394 245.216 149.127 245.494 147.859 245.782L145.972 246.159L142.998 246.716L141.425 246.995C140.858 247.041 140.288 246.951 139.762 246.734L139.277 246.491C139.161 246.423 139.075 246.314 139.034 246.186C139.024 246.124 139.024 246.06 139.034 245.997C139.075 245.86 139.102 245.718 139.115 245.575V245.278C139.121 245.153 139.146 245.029 139.187 244.91L139.34 244.416L139.421 244.173C139.434 244.066 139.485 243.968 139.565 243.895L140.571 242.61L141.209 241.424C141.344 241.145 141.344 241.109 141.398 240.983L141.515 240.66C141.677 240.222 141.815 239.775 141.928 239.321C141.991 239.097 142.027 238.863 142.081 238.629L142.198 238.018C142.227 237.855 142.248 237.69 142.261 237.524C142.294 237.37 142.265 237.208 142.18 237.075C142.133 237.013 142.066 236.969 141.991 236.951C141.915 236.933 141.836 236.942 141.766 236.976C141.619 237.033 141.481 237.108 141.353 237.201L141.173 237.335L140.868 237.605C140.201 238.205 139.574 238.848 138.989 239.528C138.378 240.274 137.704 241.037 137.057 241.747C135.502 243.445 133.93 245.108 132.285 246.734C131.872 247.147 131.449 247.552 131.009 247.956C130.793 248.154 130.56 248.36 130.308 248.567C130.162 248.693 130.009 248.81 129.85 248.918L129.472 249.142L127.953 250.041C127.441 250.337 126.911 250.589 126.39 250.867C124.309 251.945 122.141 252.847 119.91 253.563C117.703 254.301 115.452 254.901 113.17 255.36C107.611 256.411 101.992 257.119 96.3463 257.481C94.2254 257.66 92.1134 257.795 90.0554 258.047C87.9974 258.298 85.8765 258.604 83.7646 258.945C79.5946 259.646 75.4516 260.482 71.3806 261.479C69.6191 261.91 67.8876 262.393 66.1861 262.926C64.5162 263.402 62.8944 264.034 61.3421 264.813C61.3871 264.813 61.3961 264.813 61.3421 264.813H61.2882L61.1714 264.875C58.6313 266.006 56.1641 267.293 53.7841 268.73C52.5799 269.449 51.4475 270.222 50.2612 270.994C45.9295 273.924 44.5725 274.885 43.1436 274.921C42.83 274.955 42.5136 274.955 42.1999 274.921C41.4001 274.768 42.7122 272.899 45.8397 270.428C50.1733 267.016 54.9236 264.169 59.9761 261.955H60.066C60.8529 261.54 61.6665 261.176 62.5015 260.868C63.3103 260.58 64.1281 260.293 64.9279 260.05C66.5456 259.538 68.1632 259.107 69.7899 258.685C73.0432 257.858 76.3234 257.148 79.6216 256.51C84.1646 255.592 88.755 254.926 93.3716 254.515C97.928 254.147 102.439 253.797 106.852 253.168L106.78 253.195Z" fill="#221F1F"/>
<path d="M160.333 250.338C161.232 249.682 162.176 249.035 163.029 248.307C163.344 248.056 163.56 247.705 163.865 247.409L164.647 246.672C164.888 246.435 165.113 246.183 165.321 245.917C165.749 245.385 166.07 244.775 166.265 244.12C166.426 243.553 166.426 242.953 166.265 242.386C165.992 241.593 165.54 240.873 164.944 240.283C164.746 240.077 164.737 240.157 164.944 240.22C165.399 240.267 165.848 240.364 166.283 240.508C166.822 240.766 167.296 241.142 167.669 241.609C168.043 242.076 168.306 242.621 168.439 243.204C168.708 244.346 168.561 245.546 168.026 246.591C167.72 247.175 167.433 247.759 167.082 248.325C166.767 248.859 166.407 249.364 166.004 249.835C165.106 250.815 164.085 251.676 162.966 252.396C162.292 252.845 161.591 253.222 160.908 253.609C159.857 254.175 158.761 254.642 157.718 255.136C156.933 255.555 156.123 255.925 155.292 256.241L154.734 256.412C154.015 256.601 153.737 256.574 153.593 256.628H153.494C153.701 256.461 153.888 256.271 154.051 256.062L155.768 254.166C156.352 253.546 156.954 252.971 157.565 252.431C158.464 251.623 159.363 250.931 160.261 250.212L160.333 250.338Z" fill="#221F1F"/>
<path d="M161.439 255.261L162.464 254.641C162.601 254.561 162.733 254.474 162.859 254.38L163.327 253.985C163.56 253.787 163.713 253.527 163.947 253.329C164.807 252.662 165.564 251.872 166.194 250.984C166.428 250.6 166.581 250.172 166.643 249.726C166.728 249.11 166.621 248.482 166.337 247.929C166.248 247.722 166.221 247.794 166.382 247.875C166.753 247.962 167.108 248.108 167.434 248.306C167.781 248.627 168.056 249.018 168.239 249.453C168.422 249.889 168.509 250.359 168.494 250.831C168.488 251.678 168.228 252.505 167.748 253.203C167.2 253.976 166.85 254.856 166.23 255.575C165.895 255.964 165.531 256.328 165.142 256.663C164.721 257.011 164.263 257.312 163.776 257.561C163.237 257.858 162.689 258.1 162.149 258.352C161.341 258.72 160.505 259.026 159.714 259.394C159.135 259.712 158.535 259.988 157.917 260.221L157.485 260.338C157.188 260.389 156.888 260.425 156.587 260.445H156.515C156.651 260.291 156.775 260.126 156.883 259.951L158.015 258.424C158.403 257.901 158.829 257.408 159.292 256.95C159.947 256.327 160.65 255.756 161.395 255.243L161.439 255.261Z" fill="#221F1F"/>
<path d="M166.085 257.678C166.152 257.361 166.152 257.033 166.085 256.716C165.92 256.305 165.623 255.961 165.24 255.737C165.165 255.675 165.109 255.593 165.079 255.5C165.049 255.407 165.046 255.308 165.071 255.213C165.095 255.119 165.146 255.034 165.218 254.967C165.289 254.901 165.378 254.856 165.474 254.839C166.057 254.773 166.646 254.853 167.19 255.072C167.479 255.199 167.737 255.386 167.947 255.622C168.156 255.858 168.312 256.136 168.404 256.438C168.465 256.7 168.492 256.969 168.484 257.238C168.477 257.494 168.447 257.75 168.395 258.001C168.322 258.291 168.232 258.576 168.125 258.855C167.919 259.383 167.666 259.891 167.37 260.373L166.337 261.901C164.98 263.741 163.37 265.38 161.556 266.771C159.361 268.435 156.963 269.812 154.42 270.868C149.387 272.848 144.237 274.513 138.998 275.855C137.875 276.179 136.725 276.457 135.61 276.754C131.719 277.779 127.893 279.037 124.152 280.519C123.515 280.729 122.896 280.991 122.301 281.3C121.348 281.794 111.13 285.793 109.773 286.287L99.6984 289.746C99.2312 289.941 98.7468 290.092 98.2515 290.196C97.1743 290.384 96.12 290.685 95.106 291.094C93.6681 291.597 92.2123 292.065 90.7564 292.487C90.0247 292.67 89.2837 292.814 88.5366 292.918C87.8626 293.035 88.0872 292.541 88.2939 292.424C88.8961 292.083 88.2939 292.083 88.2041 291.948C88.1142 291.813 88.1142 291.84 88.1322 291.786C88.5494 291.557 88.9783 291.35 89.4173 291.166L92.2302 289.872C94.3332 288.92 96.526 287.904 96.9753 287.734L98.9614 286.943L103.212 285.191L110.276 282.217C110.968 281.911 111.705 281.687 112.424 281.444C112.747 281.309 122.193 277.392 122.606 277.284C124.578 276.487 126.598 275.815 128.654 275.271C129.066 275.167 129.471 275.038 129.868 274.885C133.301 273.654 136.904 272.683 140.4 271.794C142.198 271.318 143.995 270.787 145.703 270.248C146.026 270.15 146.35 270.096 146.673 270.006C146.997 269.916 147.473 269.799 147.868 269.673C149.917 268.981 151.931 268.254 153.872 267.391C155.81 266.572 157.65 265.535 159.354 264.3C159.542 264.156 159.929 263.887 160.405 263.572C160.882 263.258 161.403 262.791 161.951 262.368C162.815 261.672 163.591 260.872 164.261 259.987C164.422 259.736 164.926 259.277 165.348 258.801C165.543 258.585 165.72 258.353 165.878 258.109C165.975 257.98 166.045 257.834 166.085 257.678Z" fill="#221F1F"/>
<path d="M42.5953 260.544C42.3257 260.778 42.0202 260.5 41.6337 259.916C41.4846 259.641 41.416 259.329 41.436 259.017C41.5735 258.809 41.7332 258.616 41.9123 258.442C42.7441 258.083 43.6 257.783 44.4736 257.543C45.0836 257.382 45.7119 257.301 46.3429 257.301C47.6262 257.25 48.9114 257.289 50.1893 257.418C50.477 257.463 50.7598 257.535 51.0341 257.633C51.5014 257.786 51.9777 257.939 52.445 258.074C52.9123 258.208 53.4066 258.289 53.8829 258.433C54.0399 258.495 54.2098 258.516 54.3772 258.496C55.479 258.692 56.5321 259.101 57.4777 259.7L58.5112 260.553C58.8347 260.85 59.1493 261.164 59.4099 261.452C59.4998 261.542 59.6256 261.587 59.6525 261.749C59.7065 262.099 59.9311 262.225 60.1109 262.422C60.3681 262.681 60.5999 262.964 60.8029 263.267C60.8944 263.447 60.9523 263.642 60.9736 263.842C60.9736 264.022 60.6591 264.246 60.5872 264.246C60.5153 264.246 60.3445 264.444 60.2367 264.57C60.2024 264.616 60.1632 264.658 60.1199 264.696C59.7713 264.618 59.4312 264.507 59.1043 264.363L58.0619 263.941L56.8666 263.249C56.2375 262.971 55.5725 262.692 55.4377 262.638C55.2948 262.578 55.1639 262.493 55.0512 262.387L53.9908 262.054L52.8944 261.82C52.4989 261.65 52.0586 261.668 51.6901 261.344C51.6151 261.295 51.5281 261.267 51.4385 261.263L50.3511 261.12C49.9826 261.048 49.6231 260.94 49.2367 260.895C48.852 260.848 48.4649 260.824 48.0774 260.823C48.0062 260.81 47.9368 260.789 47.8707 260.76C47.7827 260.734 47.6924 260.716 47.601 260.706C46.6736 260.649 45.7426 260.692 44.8241 260.832C44.328 260.79 43.83 260.775 43.3323 260.787C43.2244 260.796 42.7032 260.446 42.5953 260.544Z" fill="#221F1F"/>
<path d="M171.98 157.726C165.869 159.765 161.286 159.325 154.393 160.889C154.393 159.64 153.944 158.382 154.016 157.133C154.015 156.451 154.051 155.771 154.123 155.093C154.285 154.195 154.07 154.401 154.851 153.97C156.02 153.323 157.485 153.071 158.698 152.451C160.487 151.548 162.21 150.521 163.856 149.378C167.181 151.427 169.275 154.931 171.98 157.726Z" fill="#221F1F"/>
<path d="M173.211 155.839C173.193 155.816 173.168 155.8 173.139 155.794C172.995 155.766 172.863 155.693 172.762 155.587C171.638 154.347 170.551 152.936 169.311 151.535C168.691 150.834 168.025 150.142 167.298 149.468C167.109 149.306 166.929 149.136 166.731 148.983L166.408 148.713C166.264 148.588 166.075 148.462 165.905 148.336C165.222 147.851 164.512 147.375 163.811 146.916L162.094 148.129L161.384 148.597L160.953 148.866C160.378 149.217 159.775 149.558 159.155 149.89L158.212 150.403L157.744 150.654L157.394 150.816C156.9 151.041 156.253 151.229 155.507 151.49C155.051 151.641 154.606 151.824 154.177 152.038C153.546 152.278 152.991 152.681 152.568 153.206C152.255 153.803 152.083 154.464 152.065 155.138C152.065 155.488 152.02 155.659 152.011 155.884V156.459V156.944V157.258V157.627C152.011 157.869 152.011 158.094 152.056 158.319V158.633L152.11 159.019C152.238 159.711 152.322 160.411 152.361 161.113L152.478 163.368L156.351 162.56L157.25 162.38L157.753 162.299L158.769 162.137C160.126 161.931 161.465 161.76 162.912 161.598C165.842 161.315 168.742 160.771 171.575 159.972C171.723 159.936 171.877 159.936 172.025 159.972H172.124C172.429 159.873 172.366 158.867 171.98 157.726C171.593 156.584 171.081 155.713 170.802 155.794C170.776 155.803 170.753 155.823 170.74 155.848C170.649 155.963 170.527 156.05 170.389 156.099C169.841 156.252 169.293 156.414 168.735 156.54C166.364 157.062 163.963 157.443 161.546 157.681C160.288 157.833 159.012 157.995 157.726 158.193L156.378 158.426H156.226C156.226 158.426 156.172 158.426 156.163 158.426C156.171 158.37 156.171 158.312 156.163 158.256V157.887C156.154 157.756 156.154 157.624 156.163 157.492V157.097V156.504V156V155.668C156.163 155.668 156.163 155.614 156.163 155.587H156.226L156.9 155.327C157.511 155.111 158.257 154.904 159.083 154.545C159.29 154.455 159.506 154.347 159.713 154.239L160.198 153.988L161.159 153.458C161.807 153.107 162.472 152.739 163.119 152.334C163.382 152.195 163.635 152.036 163.874 151.858C163.902 151.873 163.93 151.891 163.954 151.912L164.179 152.092C164.332 152.218 164.476 152.352 164.619 152.487C165.228 153.05 165.802 153.65 166.336 154.284C167.459 155.551 168.556 156.98 169.823 158.373C169.922 158.488 169.99 158.628 170.021 158.777C170.01 158.806 170.01 158.838 170.021 158.867C170.245 159.109 171.135 158.615 171.998 157.771C172.86 156.926 173.4 155.991 173.211 155.839Z" fill="#232020"/>
<path d="M116.684 176.919C116.801 176.505 117.295 176.523 117.924 176.82C118.195 176.992 118.41 177.239 118.544 177.53C118.537 177.765 118.513 177.999 118.473 178.231C118.473 178.303 118.212 178.689 117.978 179.129C117.759 179.537 117.57 179.961 117.412 180.396C117.223 180.926 116.999 181.429 116.765 181.933C116.323 182.972 116.021 184.066 115.866 185.185C115.829 185.436 115.769 185.682 115.687 185.922C115.435 186.744 115.401 187.617 115.588 188.456C115.593 188.6 115.65 188.737 115.75 188.842C115.93 189.238 116.089 189.643 116.226 190.055C116.442 190.585 116.711 191.071 116.756 191.178C116.96 191.802 117.322 192.363 117.808 192.805C117.87 192.877 117.978 192.895 118.005 193.029C118.068 193.362 118.293 193.425 118.5 193.506C118.706 193.587 119.075 193.748 119.398 193.901C119.562 194.005 119.71 194.132 119.839 194.278C119.973 194.413 119.839 194.8 119.839 194.836C119.839 194.871 119.767 195.141 119.776 195.312C119.785 195.368 119.785 195.426 119.776 195.482C119.361 195.632 118.922 195.702 118.482 195.689C117.934 195.74 117.382 195.685 116.855 195.527C116.649 195.449 116.451 195.353 116.262 195.24C115.843 195.018 115.448 194.753 115.085 194.449C114.481 193.945 113.949 193.362 113.503 192.715C113.379 192.524 113.293 192.31 113.251 192.086C112.997 191.615 112.771 191.129 112.577 190.63C112.38 190.139 112.226 189.631 112.119 189.112C111.963 188.523 111.963 187.904 112.119 187.315C112.146 187.2 112.146 187.08 112.119 186.964C112.106 185.974 112.236 184.988 112.505 184.035C112.622 183.55 112.712 183.056 112.847 182.58C112.883 182.494 112.928 182.413 112.982 182.337C113.027 182.229 113.089 182.13 113.125 182.022C113.527 180.914 114.014 179.839 114.581 178.806C114.975 178.308 115.395 177.831 115.839 177.377C115.956 177.215 116.639 177.081 116.684 176.919Z" fill="#221F1F"/>
<path d="M117.753 206.309C117.924 205.905 118.4 205.941 119.012 206.309C119.268 206.499 119.459 206.762 119.56 207.064C119.533 207.313 119.488 207.559 119.425 207.801C119.425 207.873 119.083 208.25 118.769 208.7C118.454 209.149 118.176 209.679 118.032 209.949C117.834 210.515 117.466 210.955 117.232 211.467L116.846 212.24C116.73 212.503 116.631 212.773 116.549 213.048C116.367 213.588 116.226 214.141 116.127 214.702C116.064 214.944 116.046 215.187 115.956 215.439C115.882 215.647 115.822 215.86 115.776 216.077C115.776 216.292 115.776 216.508 115.776 216.723C115.77 217.153 115.831 217.58 115.956 217.99C115.956 218.125 115.956 218.278 116.118 218.377C116.221 218.507 116.303 218.652 116.36 218.808C116.449 219.076 116.563 219.335 116.702 219.581C116.899 219.973 117.118 220.354 117.358 220.722C117.643 221.373 118.081 221.947 118.634 222.393C118.706 222.474 118.805 222.51 118.85 222.636C118.949 222.95 119.191 222.995 119.407 223.103C119.7 223.25 120 223.382 120.306 223.498C120.481 223.609 120.638 223.745 120.773 223.903C120.917 224.037 120.773 224.424 120.773 224.451C120.773 224.478 120.701 224.756 120.71 224.927C120.72 224.984 120.72 225.041 120.71 225.098C120.275 225.228 119.825 225.298 119.371 225.304C118.838 225.31 118.306 225.247 117.789 225.116C117.152 224.853 116.549 224.515 115.992 224.109C115.587 223.806 115.205 223.473 114.851 223.112L114.266 222.447C114.107 222.267 113.993 222.051 113.934 221.818C113.934 221.764 113.449 221.09 113.134 220.354L112.712 219.311C112.643 219.14 112.592 218.962 112.559 218.781C112.366 218.167 112.339 217.513 112.478 216.885C112.505 216.764 112.505 216.638 112.478 216.517C112.433 215.985 112.46 215.45 112.559 214.926C112.618 214.407 112.733 213.894 112.9 213.399C112.972 213.138 113.026 212.878 113.08 212.617L113.332 211.862C113.374 211.776 113.422 211.692 113.476 211.611C113.545 211.51 113.602 211.401 113.646 211.287C113.886 210.713 114.162 210.155 114.473 209.616C114.797 209.086 115.165 208.592 115.462 208.035C115.605 207.774 116.738 206.965 116.909 206.696C117.079 206.426 117.753 206.435 117.753 206.309Z" fill="#221F1F"/>
<path d="M121.14 67.7105C120.044 69.8939 116.243 71.691 115.02 69.0852C113.466 65.7696 117.267 63.4245 119.774 63.5952C121.428 63.712 122.524 64.943 121.14 67.7105Z" fill="#221F1F"/>
<path d="M118.05 66.875C118.157 67.0817 117.807 67.0277 117.151 66.875C116.851 66.782 116.567 66.6458 116.306 66.4706C116.193 66.3293 116.097 66.1755 116.019 66.0124C116.06 65.5047 116.162 65.0038 116.324 64.5208C116.442 64.1841 116.632 63.8774 116.881 63.6223C117.393 63.0289 117.99 62.5142 118.652 62.0948C118.808 62.0043 118.978 61.9405 119.155 61.9061C119.802 61.8252 120.368 61.6365 121.006 61.5018C121.122 61.5015 121.233 61.4601 121.321 61.385C121.679 61.2486 122.068 61.2143 122.444 61.2861C122.833 61.3384 123.208 61.4634 123.55 61.6545C123.996 62.007 124.389 62.4215 124.718 62.8855C124.763 62.9484 124.844 62.9754 124.817 63.1012C124.745 63.3977 124.88 63.4606 124.97 63.5774C125.088 63.7399 125.176 63.9226 125.23 64.1165C125.231 64.2554 125.204 64.3931 125.149 64.5208C125.149 64.6466 124.763 64.8533 124.709 64.8623C124.655 64.8713 124.448 65.033 124.322 65.1408L124.188 65.2397C123.983 65.2497 123.778 65.2346 123.577 65.1947C123.316 65.1408 123.055 65.1947 123.028 65.1947L122.894 65.1139C122.795 65.0697 122.693 65.0337 122.588 65.006C122.441 64.9565 122.284 64.9411 122.13 64.9611C122.13 64.9611 122.067 64.9611 122.04 64.8623C122.013 64.7634 121.492 65.033 121.483 65.051C121.474 65.0689 121.294 65.1768 121.114 64.9701C121.069 64.9252 121.051 64.9701 121.024 64.9701C120.792 65.0763 120.552 65.1635 120.305 65.2307C120.185 65.3077 120.073 65.3981 119.973 65.5002C119.973 65.5002 119.91 65.5002 119.874 65.5002C119.838 65.5002 119.793 65.5002 119.766 65.5002C119.523 65.7608 119.182 65.9675 119.056 66.3449C119.056 66.4167 118.562 66.6414 118.535 66.7492C118.508 66.857 118.014 66.7941 118.05 66.875Z" fill="#221F1F"/>
<path d="M151.688 75.6359C150.897 77.9362 147.365 80.2184 145.811 77.8014C142.521 72.6887 154.222 68.259 151.688 75.6359Z" fill="#221F1F"/>
<path d="M148.453 75.2136C148.579 75.4113 148.229 75.3933 147.555 75.3124C147.243 75.2651 146.94 75.1712 146.656 75.0339C146.525 74.903 146.414 74.7549 146.323 74.5936C146.306 74.0575 146.366 73.5217 146.503 73.0032C146.594 72.6309 146.773 72.2858 147.024 71.9968C147.502 71.3519 148.089 70.7954 148.759 70.3525C148.909 70.2475 149.081 70.1769 149.262 70.1459C149.918 70.038 150.484 69.8224 151.113 69.6786C151.23 69.6713 151.339 69.6199 151.419 69.5348C151.759 69.3893 152.131 69.3366 152.497 69.3821C152.879 69.3991 153.254 69.4875 153.603 69.6427C154.077 69.9467 154.512 70.3089 154.897 70.7209C154.951 70.7748 155.032 70.7928 155.023 70.9186C155.023 71.2241 155.131 71.269 155.247 71.3768C155.389 71.5258 155.501 71.6994 155.58 71.889C155.612 72.0249 155.612 72.1664 155.58 72.3023C155.58 72.4371 155.238 72.6797 155.193 72.6977C155.149 72.7157 154.96 72.9043 154.843 73.0212C154.806 73.0675 154.764 73.1097 154.717 73.147C154.514 73.1672 154.309 73.1672 154.106 73.147C153.836 73.147 153.567 73.147 153.54 73.147C153.387 73.0708 153.223 73.0192 153.055 72.9942C152.879 72.9686 152.7 72.9686 152.524 72.9942C152.479 72.9942 152.443 72.9942 152.408 72.9133C152.372 72.8325 151.76 73.102 151.751 73.129C151.742 73.1559 151.545 73.2638 151.338 73.0751C151.293 73.0751 151.275 73.0751 151.248 73.0751C151.145 73.153 151.025 73.2053 150.898 73.2278C150.781 73.2817 150.646 73.3267 150.52 73.3716C150.394 73.4165 150.305 73.5693 150.188 73.6501C150.071 73.731 150.125 73.6501 150.098 73.6501C150.071 73.6501 150.017 73.6501 149.999 73.6501C149.765 73.9197 149.442 74.1443 149.352 74.5487C149.352 74.6205 148.894 74.8721 148.885 74.9889C148.876 75.1058 148.408 75.1237 148.453 75.2136Z" fill="#221F1F"/>
<path d="M111.14 81.1889C112.602 81.3658 114.007 81.8628 115.256 82.6445C115.334 82.7028 115.394 82.7828 115.428 82.8746C115.462 82.9664 115.468 83.0661 115.446 83.1614C115.424 83.2567 115.375 83.3436 115.304 83.4114C115.234 83.4792 115.145 83.5249 115.049 83.5431C114.041 83.6572 113.024 83.6813 112.011 83.615C110.056 83.3366 108.138 82.8362 106.296 82.1234C104.874 81.5722 103.515 80.8704 102.243 80.0298C101.191 79.345 100.234 78.5265 99.3937 77.5948C99.0159 77.1635 98.6676 76.7072 98.3512 76.229C98.0498 75.7682 97.7738 75.2913 97.5244 74.8004C97.2818 74.3152 97.0571 73.812 96.8594 73.2998C96.7605 73.0482 96.6617 72.7876 96.5808 72.5271L96.455 72.1407L96.3202 71.6914C96.2875 71.5553 96.2635 71.4173 96.2483 71.2781V71.0175V70.5503C96.2483 70.2448 96.2033 69.9393 96.1943 69.6518C96.1943 69.0408 96.1943 68.4477 96.1943 67.8547C96.2439 64.4393 97.0093 61.0722 98.4411 57.9709C99.2146 56.3664 100.247 54.9002 101.497 53.6309C102.771 52.3599 104.258 51.3228 105.891 50.5669C107.32 49.9267 108.833 49.4941 110.385 49.282C111.637 49.1256 112.898 49.0536 114.159 49.0664C115.454 49.0602 116.747 49.1654 118.024 49.3809C120.602 49.8209 123.076 50.7349 125.321 52.0765C126.085 52.5078 126.786 53.0559 127.523 53.5051C128.362 54.116 129.131 54.8182 129.815 55.5987C131.09 57.0333 132.068 58.7071 132.69 60.5227C132.864 61.0154 133.002 61.5199 133.104 62.0322C133.22 62.5286 133.299 63.0333 133.337 63.5418L133.409 64.2785C133.409 64.5301 133.409 64.7727 133.409 64.9884C133.409 65.4377 133.409 65.8869 133.364 66.2463C133.31 67.3198 133.184 68.3885 132.987 69.4451C132.556 71.641 131.862 73.7769 130.92 75.8067C130.432 76.83 129.858 77.81 129.203 78.7359C128.875 79.207 128.518 79.6572 128.134 80.0837L127.568 80.7217L127.011 81.2878C126.599 81.7532 126.138 82.172 125.636 82.5367C124.512 83.2555 123.533 84.1451 122.436 84.9358C120.929 86.0447 119.282 86.951 117.538 87.6314C116.667 87.9421 115.762 88.1472 114.842 88.2424C114.033 88.3682 114.366 87.856 114.618 87.7392C115.355 87.3978 114.671 87.3978 114.564 87.254C114.456 87.1102 114.474 87.1462 114.501 87.0923C114.528 87.0384 115.121 86.8587 115.975 86.4363C117.043 85.9267 118.065 85.3254 119.03 84.6393C120.64 83.5012 122.144 82.2201 123.524 80.8115C123.569 80.8115 124.252 80.1197 125.195 79.0594C125.465 78.7719 125.663 78.5023 125.905 78.2058C126.162 77.8999 126.397 77.5756 126.606 77.2354C127.099 76.4955 127.526 75.7138 127.882 74.8992C128.977 72.2907 129.609 69.5118 129.752 66.6866C129.752 65.8689 129.895 64.9884 129.868 64.2516C129.704 62.3977 129.049 60.6209 127.972 59.103C126.845 57.5552 125.418 56.2503 123.775 55.2663C121.845 54.1149 119.751 53.2636 117.565 52.7414C117.128 52.6246 116.679 52.5613 116.226 52.5527C112.281 52.3191 108.138 52.8582 105.109 55.1135C103.565 56.2984 102.332 57.84 101.515 59.6062C101.371 59.9386 101.173 60.2352 101.029 60.5676C100.83 60.9798 100.662 61.4063 100.526 61.8435C100.071 63.3486 99.7697 64.896 99.6274 66.462C99.5555 67.2527 99.5105 68.0434 99.5105 68.8341C99.5105 69.2295 99.5105 69.6338 99.5105 70.0202V70.6042C99.5032 70.7389 99.5032 70.8739 99.5105 71.0086C99.9262 72.5757 100.644 74.0468 101.622 75.3395C102.36 76.2833 103.222 77.1235 104.184 77.8374C105.23 78.6224 106.371 79.2715 107.581 79.7692C108.718 80.3566 109.91 80.832 111.14 81.1889Z" fill="#221F1F"/>
<path d="M133.743 68.9149C132.475 69.2294 131.175 69.3952 129.869 69.4091C129.768 69.4118 129.668 69.3875 129.579 69.3385C129.491 69.2895 129.417 69.2177 129.366 69.1305C129.318 69.0318 129.304 68.9198 129.327 68.8125C129.35 68.7051 129.408 68.6083 129.492 68.5375C130.251 67.8691 131.125 67.3426 132.071 66.983C132.696 66.7831 133.341 66.6506 133.994 66.5877C135.311 66.445 136.642 66.527 137.93 66.8303C138.299 66.8932 138.649 67.028 139.009 67.1268C139.366 67.2323 139.717 67.3583 140.06 67.5042C140.402 67.6569 140.752 67.7827 141.076 67.9445L141.561 68.205L142.343 68.6363C142.456 68.7056 142.559 68.7903 142.649 68.8879L142.792 69.0227C142.792 69.1036 142.873 69.1305 142.9 69.1934C143.082 69.3853 143.212 69.6203 143.278 69.8763C143.42 70.3569 143.457 70.8627 143.386 71.3589C143.367 71.5889 143.331 71.8172 143.278 72.0418C143.253 72.1844 143.22 72.3254 143.179 72.4641C143.116 72.7336 143.044 72.9583 142.99 73.156C142.747 73.9287 142.469 74.6385 142.19 75.3214L141.984 75.8156C141.924 75.945 141.879 76.0806 141.849 76.22L141.588 77.1185C141.418 77.7063 141.297 78.3075 141.229 78.9156C141.18 79.2125 141.162 79.5135 141.175 79.8141C141.157 80.1133 141.157 80.4134 141.175 80.7126C141.275 81.9277 141.611 83.1118 142.163 84.1989C142.766 85.2958 143.554 86.2806 144.491 87.1102C146.498 88.8237 148.886 90.0315 151.456 90.6324L153.208 91.0008C153.792 91.0727 154.386 91.2075 155.006 91.2524C157.027 91.5244 159.083 91.3903 161.052 90.858C163.021 90.3257 164.864 89.4059 166.473 88.1525C166.995 87.7462 167.465 87.2786 167.875 86.7597C167.947 86.6429 168.109 86.4093 168.342 86.0948L168.756 85.5647C168.908 85.367 169.025 85.1154 169.187 84.8728L169.663 84.0821L170.095 83.1836C170.402 82.513 170.654 81.8189 170.85 81.108C170.972 80.7483 171.062 80.3784 171.119 80.0028L171.344 78.9066C171.452 78.1698 171.488 77.4599 171.56 76.8309C171.622 75.564 171.56 74.5667 171.614 74.2072C171.691 72.4665 171.407 70.7286 170.778 69.1036C170.107 67.5511 168.998 66.2273 167.587 65.2938C167.156 65.0512 166.689 64.7637 166.32 64.5031C165.872 64.1689 165.379 63.8997 164.855 63.7034C164.316 63.5237 163.768 63.3709 163.22 63.2092C162.429 63.0654 161.647 62.8767 160.847 62.7509L158.421 62.4455C157.612 62.3915 156.812 62.2388 156.003 62.113C155.194 61.9872 155.662 61.6008 155.922 61.5559C156.677 61.4391 156.057 61.2414 155.985 61.0797C155.913 60.9179 155.931 60.9539 155.985 60.909C156.132 60.8705 156.283 60.8494 156.435 60.8461L157.576 60.7562C158.772 60.6697 159.973 60.6547 161.171 60.7113C163.218 60.7956 165.24 61.1956 167.165 61.8973L167.866 62.1759C168.27 62.4005 168.837 62.706 169.511 63.0744C171.145 64.1493 172.498 65.6006 173.456 67.3065C174.387 69.0822 174.944 71.0304 175.091 73.0302C175.235 74.6475 175.199 75.9145 175.235 76.3368C175.201 77.2404 175.108 78.1408 174.957 79.0324C174.957 79.1312 174.795 79.9309 174.579 81.1529C174.258 82.5979 173.775 84.0023 173.141 85.3401C172.982 85.7129 172.789 86.0707 172.566 86.4093L171.955 87.4247C171.524 88.0626 171.056 88.6197 170.661 89.1139C169.762 90.0124 169.142 90.6414 169.043 90.7223C167.061 92.42 164.68 93.5857 162.123 94.1097C161.629 94.1816 161.126 94.3074 160.631 94.4242C156.359 95.2734 151.93 94.8356 147.906 93.1663C145.814 92.3494 143.881 91.1759 142.19 89.6979C141.894 89.4104 141.615 89.1049 141.336 88.7994C141.058 88.4939 140.707 87.9638 140.375 87.5594C138.689 85.3496 137.814 82.628 137.894 79.85C137.894 79.5086 137.894 79.1671 137.894 78.8257L138.056 77.8283C138.119 77.4959 138.164 77.1544 138.236 76.8309L138.524 75.8695L138.811 74.9171C138.946 74.5397 139.072 74.2701 139.189 74.0186C139.422 73.4704 139.647 72.9313 139.827 72.4102L140.006 71.907L140.123 71.5655L140.222 71.2421C140.285 71.1343 140.33 70.8827 140.132 70.8018L139.782 70.5772C139.629 70.48 139.47 70.393 139.305 70.3166C138.982 70.1638 138.685 69.9841 138.407 69.8763C137.972 69.6902 137.521 69.5457 137.059 69.445C136.744 69.3641 136.106 69.1485 135.432 69.0047C134.878 68.8804 134.307 68.85 133.743 68.9149Z" fill="#221F1F"/>
<path d="M112.532 103.364C112.262 103.248 112.469 102.915 112.981 102.466C113.239 102.288 113.524 102.154 113.826 102.071C114.019 102.088 114.212 102.118 114.401 102.16C114.578 102.302 114.746 102.456 114.904 102.619C115.165 102.834 115.426 103.077 115.578 103.185C115.839 103.376 116.075 103.599 116.279 103.85C116.666 104.295 117.129 104.669 117.645 104.955C117.758 105.017 117.856 105.103 117.933 105.206C118.086 105.373 118.272 105.506 118.479 105.595C118.687 105.685 118.911 105.73 119.137 105.728C119.218 105.728 119.29 105.728 119.38 105.674C119.623 105.592 119.879 105.559 120.135 105.575C120.485 105.575 120.863 105.575 120.953 105.575C121.422 105.695 121.905 105.755 122.39 105.755C122.462 105.755 122.516 105.701 122.615 105.755C122.674 105.825 122.754 105.873 122.844 105.893C122.933 105.912 123.027 105.902 123.109 105.862C123.328 105.817 123.551 105.799 123.774 105.808C123.924 105.842 124.065 105.906 124.188 105.997C124.311 106.14 124.381 106.321 124.386 106.509C124.386 106.662 124.484 106.806 124.547 106.959C124.574 107.01 124.596 107.064 124.61 107.12C124.288 107.601 123.879 108.018 123.406 108.351L123.073 108.486C122.885 108.567 122.615 108.648 122.345 108.738C121.815 108.935 121.195 109.061 121.078 109.115C120.942 109.135 120.803 109.12 120.674 109.07C120.674 109.07 120.189 109.169 119.694 109.187C119.351 109.221 119.005 109.221 118.661 109.187C118.244 109.186 117.84 109.04 117.519 108.774C117.455 108.722 117.377 108.691 117.295 108.684C116.966 108.582 116.647 108.45 116.342 108.288C116.055 108.1 115.767 107.911 115.497 107.704C115.228 107.498 114.922 107.327 114.68 107.093C114.639 107.048 114.605 106.997 114.581 106.941C114.545 106.871 114.5 106.808 114.446 106.752C113.835 106.24 113.457 105.566 112.927 105.036C112.792 104.91 112.631 104.074 112.487 103.94C112.343 103.805 112.64 103.409 112.532 103.364Z" fill="#221F1F"/>
<path d="M147.869 51.5725C148.38 51.4275 148.899 51.3134 149.424 51.231C149.891 51.1592 150.466 51.0423 151.113 50.9705C151.76 50.8986 152.488 50.8357 153.27 50.7908C157.107 50.6379 160.944 51.0743 164.648 52.0846C168.525 53.1021 172.13 54.9612 175.207 57.5297C175.845 58.1048 176.385 58.7248 176.897 59.2549C177.409 59.7851 177.733 60.3961 178.056 60.8723C178.328 61.2867 178.554 61.7296 178.73 62.1931C178.851 62.467 178.941 62.7532 179 63.0467C179.001 63.1534 178.975 63.2586 178.924 63.3525C178.874 63.4464 178.8 63.5258 178.71 63.5833C178.62 63.6408 178.517 63.6745 178.411 63.6813C178.304 63.688 178.198 63.6675 178.101 63.6218C177.445 63.2444 176.061 61.4024 173.473 59.8569C170.46 58.0935 167.144 56.9081 163.695 56.3617C160.402 55.8269 157.051 55.7543 153.738 56.146C153.082 56.2359 152.488 56.3527 151.94 56.4335C151.392 56.5144 150.988 56.6672 150.61 56.748C150.215 56.8405 149.825 56.9545 149.442 57.0895C148.372 57.4039 146.26 52.0487 147.869 51.5725Z" fill="#232020"/>
<path d="M131.719 52.256L131.647 52.1212C131.545 51.9934 131.434 51.8733 131.315 51.7618C131.142 51.5535 130.943 51.3691 130.721 51.2137C130.426 50.9633 130.11 50.7379 129.778 50.5398C127.729 49.3428 125.516 48.4527 123.208 47.8981C120.695 47.2576 118.13 46.8456 115.542 46.6671C113.296 46.4964 111.651 46.6671 111.103 46.5053C110.815 46.4155 110.546 45.8674 110.815 45.6068C112.218 44.7721 113.797 44.2767 115.426 44.1602C118.242 43.7962 121.093 43.7962 123.909 44.1602C126.713 44.4833 129.446 45.2634 131.998 46.4694C133.375 47.1004 134.601 48.0196 135.592 49.165C136.572 50.5847 131.953 52.5525 131.719 52.256Z" fill="#232020"/>
<path d="M185.479 68.2676C185.479 68.3574 185.425 68.4024 185.38 68.4203L172.161 72.4907C172.131 72.4914 172.102 72.4853 172.076 72.4728C172.049 72.4603 172.026 72.4418 172.008 72.4188C172.034 73.0353 172.165 73.6429 172.394 74.2159C172.527 74.8283 172.768 75.4123 173.104 75.9411C173.107 75.9105 173.116 75.881 173.132 75.8546C173.147 75.8281 173.169 75.8055 173.194 75.7883L173.733 75.6266L186.423 71.718C186.423 71.718 186.513 71.7179 186.576 71.7898C186.556 71.1725 186.425 70.5638 186.189 69.9928C186.061 69.3789 185.82 68.794 185.479 68.2676Z" fill="#232020"/>
<path d="M116.333 181.842C116.477 181.662 116.701 181.591 116.791 181.465C116.791 181.42 116.881 181.339 116.791 181.465C116.757 181.591 116.742 181.721 116.746 181.851C116.703 182.089 116.703 182.332 116.746 182.57C116.786 182.865 116.884 183.149 117.034 183.406C117.105 183.556 117.19 183.7 117.285 183.837C117.351 183.979 117.426 184.117 117.51 184.25C117.798 184.807 118.184 185.391 118.517 186.047C118.599 186.194 118.651 186.356 118.669 186.523C118.77 187.115 118.968 187.685 119.254 188.213C119.254 188.303 119.316 188.41 119.442 188.464C119.648 188.748 119.789 189.073 119.856 189.417C119.955 189.787 120.012 190.166 120.026 190.549L119.928 191.492C119.883 191.816 119.829 192.13 119.775 192.391C119.772 192.483 119.744 192.574 119.694 192.651C119.582 192.81 119.516 192.997 119.505 193.191C119.457 193.433 119.379 193.669 119.272 193.891C119.223 193.994 119.181 194.099 119.146 194.206C119.146 194.251 119.146 194.305 119.146 194.206C119.095 193.977 119.029 193.752 118.948 193.532C118.821 193.294 118.677 193.066 118.517 192.849C118.477 192.751 118.422 192.661 118.355 192.58L117.986 192.04C117.672 191.654 117.375 191.277 117.294 191.196C117.227 191.113 117.184 191.014 117.169 190.908C117.169 190.908 116.198 189.731 116.18 189.668C116.054 189.39 115.812 189.165 115.883 188.77C115.883 188.698 115.883 188.644 115.83 188.59C115.561 188.079 115.378 187.526 115.29 186.955C115.227 186.658 115.111 186.38 115.057 186.056C115.048 185.997 115.048 185.936 115.057 185.877C115.066 185.802 115.066 185.726 115.057 185.652C114.998 185.269 114.98 184.88 115.003 184.493C115.038 184.091 115.101 183.691 115.191 183.298C115.272 183.096 115.368 182.9 115.479 182.714C115.65 182.489 115.83 182.282 115.874 182.193C115.919 182.103 116.279 181.905 116.333 181.842Z" fill="#221F1F"/>
<path d="M116.953 213.426C117.07 213.255 117.285 213.183 117.357 213.057C117.339 213.18 117.339 213.304 117.357 213.426C117.333 213.645 117.348 213.868 117.402 214.082C117.438 214.234 117.493 214.382 117.564 214.522L117.762 214.801C117.846 214.915 117.946 215.018 118.058 215.106C118.137 215.2 118.221 215.29 118.31 215.376C118.669 215.726 119.119 216.139 119.595 216.652C119.696 216.772 119.775 216.909 119.829 217.056C120.059 217.605 120.362 218.122 120.727 218.592C120.781 218.673 120.817 218.781 120.952 218.817C121.202 219.065 121.382 219.375 121.473 219.716C121.61 220.075 121.686 220.454 121.698 220.839C121.674 221.444 121.593 222.046 121.455 222.636C121.446 222.723 121.415 222.806 121.365 222.878C121.264 223.024 121.205 223.195 121.195 223.373L120.988 224.019C120.942 224.117 120.905 224.22 120.88 224.325C120.88 224.37 120.88 224.415 120.88 224.325C120.864 224.258 120.843 224.192 120.817 224.127L120.638 223.714C120.528 223.482 120.386 223.267 120.215 223.076C120.215 223.076 120.125 222.968 120.044 222.833C119.945 222.658 119.824 222.495 119.685 222.348C119.488 222.095 119.265 221.863 119.02 221.656C118.987 221.626 118.961 221.59 118.942 221.55C118.924 221.51 118.914 221.467 118.912 221.423C118.912 221.378 117.941 220.524 117.914 220.524C117.789 220.309 117.519 220.165 117.555 219.814C117.552 219.756 117.526 219.701 117.483 219.662C117.159 219.264 116.898 218.818 116.71 218.341C116.593 218.08 116.423 217.847 116.306 217.586C116.296 217.523 116.296 217.46 116.306 217.397C116.305 217.323 116.29 217.25 116.261 217.182C115.974 216.445 115.881 215.646 115.991 214.863C116.054 214.659 116.136 214.46 116.234 214.27C116.369 214.11 116.495 213.942 116.611 213.767C116.593 213.704 116.908 213.498 116.953 213.426Z" fill="#221F1F"/>
<path d="M164.647 127.337C168.314 119.961 172.798 111.487 173.634 103.077C173.805 101.424 173.778 99.9772 171.792 99.9412C168.718 99.8963 165.887 104.865 164.602 106.995C163.874 108.208 166.516 108.208 167.092 107.264C167.172 107.129 170.686 101.613 171.378 102.044C170.848 101.711 170.974 103.446 170.884 104.074C170.497 106.208 169.954 108.31 169.257 110.364C167.346 116.116 164.975 121.705 162.167 127.077C161.529 128.38 164.153 128.353 164.647 127.346V127.337Z" fill="#221F1F"/>
<path d="M18.8967 257.427C18.5785 257.734 18.1919 257.962 17.7686 258.092C17.3453 258.222 16.8973 258.249 16.4612 258.172C16.1647 258.172 15.7782 257.633 15.958 257.382C16.2785 256.907 16.6329 256.457 17.0184 256.034C17.1353 255.908 18.2586 255.019 19.5887 254.093C20.9188 253.168 22.4555 252.233 23.2464 251.766C24.788 250.872 26.3988 250.103 28.0634 249.466C31.4491 248.116 34.9809 247.166 38.5871 246.635C39.3938 246.52 40.2077 246.463 41.0226 246.465C42.4155 246.393 43.8085 246.465 45.2015 246.509C45.8935 246.509 46.5945 246.599 47.2865 246.644L49.3714 246.815C49.827 246.908 50.2905 246.956 50.7554 246.959C52.2822 247.089 53.7895 247.39 55.2489 247.857C56.8048 248.3 58.3106 248.902 59.7424 249.654C61.9147 250.89 63.8923 252.44 65.6108 254.255C65.87 254.501 66.0938 254.783 66.2759 255.09C66.4387 255.439 66.6311 255.772 66.851 256.088C67.0757 256.402 67.3184 256.69 67.5251 256.986C68.13 257.873 68.6051 258.841 68.936 259.862C69.0675 260.387 69.119 260.929 69.0888 261.47C69.0888 261.946 68.6395 261.758 68.5676 261.623C68.3339 261.218 68.235 261.623 68.0823 261.686C68.0325 261.713 67.9772 261.728 67.9205 261.731C67.8756 261.731 67.7857 261.407 67.534 260.958C67.2447 260.397 66.908 259.862 66.5275 259.359C65.8793 258.531 65.1703 257.753 64.4066 257.031C64.4066 257.031 64.0291 256.636 63.5079 256.133C63.2203 255.899 62.8878 255.603 62.5193 255.306C62.1509 255.01 61.7285 254.713 61.2881 254.408C60.8478 254.102 60.3894 253.851 59.967 253.608L58.7089 252.961L57.1092 252.278C56.6697 252.112 56.2405 251.92 55.8241 251.703C54.7576 251.322 53.6641 251.022 52.5528 250.804C50.9442 250.436 49.2816 250.31 49.1647 250.256C48.5177 250.149 47.8526 250.14 47.2056 250.068C46.5585 249.996 45.9025 249.87 45.2464 249.78C44.9835 249.753 44.7185 249.753 44.4556 249.78H42.7481L41.0405 249.906C39.8993 249.966 38.7622 250.089 37.6345 250.274C37.0518 250.35 36.4752 250.468 35.909 250.625L34.1925 251.047L33.5724 251.173C33.3077 251.218 33.0465 251.281 32.7905 251.362C30.0942 252.129 27.4857 253.177 25.0078 254.488L23.0038 255.387C22.3108 255.7 21.6358 256.051 20.9817 256.438C20.5413 256.789 19.1394 257.148 18.8967 257.427Z" fill="#221F1F"/>
<path d="M146.08 238.836C144.517 241.981 149.136 241.361 149.72 241.235C153.45 240.471 154.546 240.192 157.656 238.279C158.249 237.91 160.46 237.03 160.747 237.605C161.035 238.18 151.994 244.496 143.825 244.847C143.205 244.847 141.497 245.602 144.229 237.443C144.858 235.556 146.763 237.461 146.08 238.836Z" fill="#221F1F"/>
<path d="M146.359 238.566C146.411 238.294 146.403 238.014 146.334 237.745C146.266 237.477 146.14 237.226 145.964 237.012C145.792 236.782 145.553 236.609 145.281 236.518C145.13 236.474 144.97 236.473 144.819 236.516C144.668 236.559 144.532 236.644 144.427 236.76C144.13 237.195 143.919 237.683 143.807 238.198C143.645 238.674 143.502 239.159 143.358 239.635C143.065 240.603 142.831 241.587 142.657 242.583C142.563 243.095 142.542 243.619 142.594 244.137C142.6 244.286 142.638 244.431 142.705 244.565C142.771 244.698 142.865 244.815 142.98 244.91C143.233 245.047 143.528 245.086 143.807 245.018C147.846 244.689 151.773 243.523 155.337 241.594C157.155 240.705 158.864 239.611 160.433 238.333C160.532 238.247 160.626 238.154 160.712 238.054C160.758 238.004 160.8 237.95 160.837 237.892C160.901 237.804 160.926 237.694 160.909 237.587C160.876 237.497 160.818 237.419 160.742 237.361C160.665 237.304 160.573 237.27 160.478 237.263C160.341 237.241 160.201 237.241 160.064 237.263C159.549 237.329 159.045 237.462 158.564 237.659C158.086 237.842 157.628 238.074 157.198 238.351C156.775 238.611 156.344 238.863 155.904 239.096C154.135 240.017 152.229 240.645 150.26 240.956C149.303 241.2 148.308 241.258 147.33 241.127C146.871 241.093 146.441 240.887 146.126 240.552C146.019 240.356 145.963 240.137 145.963 239.914C145.963 239.691 146.019 239.472 146.126 239.276C146.323 238.8 146.027 238.62 145.802 239.159C145.682 239.41 145.627 239.688 145.643 239.966C145.659 240.244 145.744 240.514 145.892 240.75C146.256 241.161 146.765 241.416 147.312 241.46C148.329 241.596 149.363 241.538 150.359 241.289C151.347 241.082 152.336 240.875 153.306 240.579C154.277 240.286 155.214 239.892 156.101 239.402C156.542 239.159 157 238.908 157.413 238.638C157.823 238.368 158.264 238.148 158.725 237.982C159.174 237.794 159.646 237.665 160.127 237.596C160.292 237.564 160.462 237.586 160.613 237.659C160.613 237.659 160.613 237.758 160.496 237.838C160.413 237.927 160.326 238.011 160.235 238.09C158.69 239.345 157.008 240.421 155.221 241.298C151.693 243.201 147.811 244.355 143.816 244.685C143.555 244.685 143.331 244.739 143.196 244.631C143.111 244.56 143.041 244.47 142.993 244.369C142.945 244.269 142.919 244.159 142.917 244.047C142.87 243.564 142.894 243.077 142.989 242.601C143.154 241.619 143.385 240.649 143.681 239.698C143.816 239.222 143.96 238.737 144.122 238.261C144.227 237.799 144.409 237.359 144.661 236.958C144.939 236.625 145.425 236.832 145.694 237.182C145.837 237.357 145.94 237.561 145.996 237.78C146.052 237.999 146.059 238.227 146.018 238.449C145.91 238.836 146.198 239.051 146.359 238.566Z" fill="#232020"/>
<path d="M66.3392 252.836C67.7861 253.959 69.215 255.289 71.0304 255.594C72.5762 255.846 75.9642 255.001 77.492 254.651C80.6564 253.819 83.9301 253.479 87.1979 253.644C87.818 253.644 90.0737 254.417 89.8491 255.001C89.7412 255.28 71.6864 259.988 70.1766 259.7C68.6668 259.413 61.7109 252.719 59.6709 250.032C61.8997 249.646 64.5598 251.443 66.3392 252.836Z" fill="#221F1F"/>
<path d="M66.0875 252.422C64.9882 251.557 63.7795 250.841 62.4927 250.293C61.839 250.017 61.1429 249.856 60.4347 249.816C60.2462 249.804 60.057 249.804 59.8685 249.816L59.3563 249.879C59.2754 249.879 59.3563 249.924 59.3563 249.951L59.4371 250.059L59.5899 250.257L59.9584 250.715L60.2999 251.11C62.1268 253.174 64.0712 255.13 66.1234 256.969C67.1396 257.916 68.2339 258.776 69.3947 259.539C69.7063 259.752 70.0774 259.862 70.4551 259.853C70.8046 259.83 71.1526 259.788 71.4976 259.727C72.1806 259.61 72.8546 259.476 73.5287 259.341C76.2247 258.766 78.9208 258.119 81.572 257.445C84.2231 256.771 86.9012 256.097 89.5434 255.271C89.6398 255.241 89.7331 255.202 89.822 255.154C89.8759 255.1 89.9568 255.064 89.9568 254.974C89.973 254.939 89.9813 254.9 89.9813 254.862C89.9813 254.823 89.973 254.785 89.9568 254.749C89.8709 254.559 89.726 254.402 89.5434 254.3C89.2406 254.11 88.9182 253.954 88.5818 253.833C88.252 253.704 87.9124 253.602 87.5663 253.527C87.2193 253.464 86.8675 253.431 86.5148 253.429C85.1322 253.378 83.7476 253.426 82.3718 253.572C79.6128 253.851 76.9797 254.642 74.2836 255.154C73.615 255.282 72.94 255.375 72.2615 255.432C71.5976 255.501 70.9266 255.428 70.2934 255.217C69.0434 254.685 67.8919 253.947 66.8873 253.033C66.2852 252.566 66.0785 252.836 66.6716 253.303C67.7055 254.243 68.8944 254.997 70.1855 255.531C70.8603 255.765 71.5788 255.845 72.2885 255.765C72.9794 255.713 73.6666 255.62 74.3465 255.486C77.0426 254.965 79.7386 254.183 82.4347 253.914C83.7925 253.767 85.1591 253.719 86.5238 253.77C86.858 253.769 87.1917 253.796 87.5213 253.851C87.8471 253.932 88.1681 254.031 88.4829 254.147C88.798 254.256 89.0995 254.401 89.3816 254.579C89.4981 254.645 89.5944 254.741 89.6602 254.857L89.4625 254.929C86.8563 255.747 84.1782 256.412 81.5181 257.095C78.8579 257.777 76.1798 258.424 73.4927 258.99C72.8187 259.125 72.1447 259.26 71.4707 259.377C71.1381 259.377 70.7966 259.476 70.4641 259.494C70.1425 259.51 69.8251 259.415 69.5654 259.224C68.4238 258.478 67.3502 257.634 66.3571 256.699C64.3087 254.871 62.3702 252.924 60.5515 250.868L60.219 250.481L59.9404 250.131C60.096 250.121 60.2521 250.121 60.4077 250.131C61.0755 250.17 61.7319 250.322 62.3489 250.58C63.5969 251.121 64.769 251.821 65.8358 252.665C66.3571 253.033 66.5278 252.791 66.0875 252.422Z" fill="#232020"/>
<path d="M93.4887 160.206C93.983 160.412 92.59 161.392 92.59 160.942C92.59 160.493 91.242 160.52 91.6913 160.251C92.1407 159.981 92.0418 159.352 92.59 159.352C93.1382 159.352 92.7967 159.918 93.4887 160.206Z" fill="#060606"/>
<path d="M94.3883 168.696C93.867 168.589 95.0353 167.367 95.1252 167.798C95.2151 168.229 96.5272 167.951 96.1228 168.31C95.7183 168.669 95.952 169.289 95.4308 169.388C94.9095 169.487 95.0713 168.84 94.3883 168.696Z" fill="#060606"/>
<path d="M96.6518 156.657C97.1461 156.854 95.7531 157.834 95.7531 157.384C95.7531 156.935 94.4051 156.971 94.8544 156.692C95.3037 156.414 95.2049 155.794 95.7531 155.794C96.3013 155.794 95.9688 156.369 96.6518 156.657Z" fill="#060606"/>
<path d="M96.1841 164.303C96.283 164.716 95.0248 164.303 95.2854 164.078C95.546 163.853 94.9349 163.027 95.2854 163.179C95.6359 163.332 96.0403 162.973 96.283 163.314C96.5256 163.656 96.0313 163.736 96.1841 164.303Z" fill="#060606"/>
<path d="M89.813 165.426C90.1005 165.112 90.451 166.397 90.1185 166.28C89.786 166.163 89.4445 167.178 89.3726 166.756C89.3007 166.334 88.7705 166.244 88.9143 165.857C89.058 165.471 89.4175 165.875 89.813 165.426Z" fill="#060606"/>
<path d="M87.1976 163.611C87.2875 164.024 86.0383 163.557 86.2989 163.36C86.5595 163.162 85.9754 162.29 86.3528 162.461C86.7303 162.632 87.1167 162.281 87.3504 162.632C87.584 162.982 87.0898 163.036 87.1976 163.611Z" fill="#060606"/>
<path d="M99.9141 168.212C100.31 168.373 99.2131 169.11 99.2131 168.787C99.2131 168.463 98.1527 168.463 98.5211 168.248C98.8896 168.032 98.7907 167.511 99.2131 167.511C99.6355 167.511 99.3749 167.987 99.9141 168.212Z" fill="#060606"/>
<path d="M93.8025 173.827C94.189 173.989 93.1015 174.726 93.1015 174.411C93.1015 174.097 92.0411 174.079 92.4005 173.863C92.76 173.647 92.6792 173.135 93.1015 173.135C93.5239 173.135 93.2633 173.603 93.8025 173.827Z" fill="#060606"/>
<path d="M88.2036 172.318C88.1497 172.74 87.1162 171.896 87.4577 171.797C87.7992 171.698 87.4577 170.692 87.7992 170.979C88.1407 171.267 88.5811 171.06 88.6979 171.464C88.8148 171.869 88.2755 171.743 88.2036 172.318Z" fill="#060606"/>
<path d="M78.3813 158.228C78.6509 158.696 79.4417 157.195 78.9924 157.249C78.543 157.303 78.3992 155.973 78.1925 156.467C77.9229 157.096 77.2938 156.934 77.3837 157.465C77.4736 157.995 78.0128 157.581 78.3813 158.228Z" fill="#060606"/>
<path d="M79.6748 161.383C80.0972 161.427 79.5041 160.232 79.3333 160.547C79.1626 160.861 78.2459 160.322 78.4346 160.691C78.6234 161.059 78.3268 161.463 78.7043 161.661C79.0817 161.859 79.1087 161.275 79.6748 161.383Z" fill="#060606"/>
<path d="M83.0823 153.907C82.8127 154.231 84.1338 154.41 83.981 154.096C83.8282 153.781 84.7719 153.314 84.3585 153.296C83.9451 153.278 83.7743 152.766 83.3969 152.964C83.0194 153.161 83.4598 153.458 83.0823 153.907Z" fill="#060606"/>
<path d="M99.1324 175.49C99.5278 175.651 98.4404 176.388 98.4404 176.074C98.4404 175.759 97.3799 175.741 97.7394 175.526C98.0989 175.31 98.018 174.798 98.4404 174.798C98.8628 174.798 98.5932 175.274 99.1324 175.49Z" fill="#060606"/>
<path d="M112.721 170.611C113.134 170.539 112.613 171.77 112.433 171.509C112.253 171.248 111.355 171.788 111.534 171.41C111.714 171.033 111.391 170.646 111.741 170.422C112.092 170.197 112.136 170.709 112.721 170.611Z" fill="#060606"/>
<path d="M118.185 170.017C118.607 169.945 118.086 171.176 117.897 170.916C117.708 170.655 116.828 171.194 116.998 170.817C117.169 170.44 116.855 170.053 117.205 169.829C117.556 169.604 117.61 170.116 118.185 170.017Z" fill="#060606"/>
<path d="M101.155 165.759C101.46 165.885 100.606 166.496 100.606 166.217C100.606 165.939 99.7707 165.957 100.058 165.786C100.346 165.615 100.274 165.211 100.606 165.211C100.939 165.211 100.732 165.588 101.155 165.759Z" fill="#060606"/>
<path d="M109.071 177.457C109.376 177.583 108.522 178.185 108.522 177.916C108.522 177.646 107.687 177.655 107.974 177.484C108.262 177.314 108.19 176.909 108.522 176.909C108.855 176.909 108.648 177.287 109.071 177.457Z" fill="#060606"/>
<path d="M104.363 172.605C104.668 172.731 103.814 173.333 103.814 173.063C103.814 172.793 102.979 172.802 103.266 172.632C103.554 172.461 103.482 172.057 103.814 172.057C104.147 172.057 103.94 172.434 104.363 172.605Z" fill="#060606"/>
<path d="M102.943 180.251C103.051 180.566 102.045 180.314 102.242 180.135C102.44 179.955 101.901 179.335 102.242 179.434C102.584 179.533 102.817 179.227 103.033 179.479C103.249 179.73 102.799 179.784 102.943 180.251Z" fill="#060606"/>
<path d="M93.4891 180.251C93.588 180.566 92.5904 180.314 92.7882 180.134C92.9859 179.955 92.4466 179.335 92.7882 179.434C93.1297 179.532 93.3633 179.227 93.579 179.478C93.7947 179.73 93.3184 179.784 93.4891 180.251Z" fill="#060606"/>
<path d="M82.3446 169.236C82.4524 169.55 81.4459 169.298 81.6436 169.119C81.8413 168.939 81.3021 168.319 81.6436 168.427C81.9851 168.535 82.2188 168.22 82.4345 168.472C82.6501 168.723 82.2008 168.804 82.3446 169.236Z" fill="#060606"/>
<path d="M101.352 162.982C101.154 163.243 100.786 162.273 101.055 162.344C101.325 162.416 101.514 161.599 101.603 161.913C101.693 162.228 102.107 162.273 102.017 162.587C101.927 162.902 101.63 162.614 101.352 162.982Z" fill="#060606"/>
<path d="M105.998 162.982C105.801 163.243 105.432 162.273 105.702 162.344C105.971 162.416 106.16 161.599 106.25 161.913C106.34 162.228 106.753 162.273 106.663 162.587C106.573 162.902 106.277 162.614 105.998 162.982Z" fill="#060606"/>
<path d="M99.1596 159.056C99.4651 159.182 98.6114 159.784 98.6114 159.514C98.6114 159.245 97.7756 159.254 98.0632 159.083C98.3507 158.912 98.2788 158.508 98.6114 158.508C98.9439 158.508 98.7282 158.885 99.1596 159.056Z" fill="#060606"/>
<path d="M106.556 167.492C106.556 167.825 105.657 167.232 105.944 167.133C106.232 167.034 105.9 166.234 106.16 166.477C106.421 166.719 106.771 166.477 106.879 166.791C106.987 167.106 106.574 167.034 106.556 167.492Z" fill="#060606"/>
<path d="M112.667 166.45C112.973 166.576 112.119 167.187 112.119 166.909C112.119 166.63 111.283 166.648 111.571 166.477C111.859 166.307 111.787 165.902 112.119 165.902C112.452 165.902 112.245 166.28 112.667 166.45Z" fill="#060606"/>
<path d="M170.434 166.639C169.904 166.719 171.028 167.995 171.126 167.537C171.225 167.079 172.537 167.438 172.151 167.07C171.765 166.701 172.025 166.082 171.504 165.965C170.983 165.848 171.171 166.522 170.434 166.639Z" fill="#060606"/>
<path d="M167.63 174.699C168.169 174.699 167.306 173.252 167.127 173.666C166.947 174.079 165.725 173.486 166.03 173.926C166.336 174.366 165.967 174.915 166.453 175.139C166.938 175.364 166.884 174.672 167.63 174.699Z" fill="#060606"/>
<path d="M168.179 162.443C167.649 162.533 168.764 163.8 168.871 163.342C168.979 162.883 170.282 163.243 169.896 162.875C169.509 162.506 169.77 161.886 169.249 161.76C168.728 161.635 168.907 162.326 168.179 162.443Z" fill="#060606"/>
<path d="M166.876 170C166.687 170.377 168.008 170.251 167.774 170C167.541 169.748 168.367 169.056 167.945 169.101C167.523 169.146 167.262 168.724 166.939 169.002C166.615 169.281 167.181 169.47 166.876 170Z" fill="#060606"/>
<path d="M172.798 172.57C172.591 172.201 171.953 173.369 172.303 173.324C172.654 173.279 172.753 174.349 172.923 173.962C173.094 173.576 173.615 173.603 173.571 173.181C173.526 172.758 173.076 173.064 172.798 172.57Z" fill="#060606"/>
<path d="M175.747 171.401C175.567 171.788 176.897 171.617 176.645 171.401C176.394 171.186 177.203 170.44 176.789 170.503C176.376 170.566 176.097 170.152 175.783 170.431C175.468 170.71 175.998 170.871 175.747 171.401Z" fill="#060606"/>
<path d="M162.319 172.938C161.905 173 162.786 173.998 162.867 173.656C162.948 173.315 163.981 173.585 163.676 173.288C163.37 172.991 163.577 172.515 163.164 172.389C162.75 172.264 162.903 172.839 162.319 172.938Z" fill="#060606"/>
<path d="M166.965 179.82C166.552 179.883 167.433 180.881 167.514 180.539C167.594 180.198 168.628 180.467 168.322 180.171C168.017 179.874 168.223 179.398 167.81 179.272C167.397 179.146 167.549 179.722 166.965 179.82Z" fill="#060606"/>
<path d="M172.761 179.65C172.761 180.063 173.911 179.479 173.606 179.308C173.3 179.138 173.83 178.221 173.462 178.41C173.093 178.598 172.689 178.302 172.482 178.67C172.276 179.039 172.824 179.066 172.761 179.65Z" fill="#060606"/>
<path d="M185.586 168.212C185.217 168.607 184.795 166.963 185.217 167.124C185.64 167.286 186.116 166.019 186.179 166.54C186.296 167.223 186.916 167.205 186.727 167.7C186.538 168.194 186.053 167.673 185.586 168.212Z" fill="#060606"/>
<path d="M183.6 170.943C183.187 170.889 184.032 169.856 184.131 170.197C184.23 170.539 185.236 170.242 184.949 170.548C184.661 170.853 184.868 171.32 184.463 171.446C184.059 171.572 184.185 171.015 183.6 170.943Z" fill="#060606"/>
<path d="M182.019 162.919C182.208 163.296 180.878 163.17 181.12 162.919C181.363 162.667 180.527 161.975 180.949 162.02C181.372 162.065 181.632 161.652 181.956 161.922C182.279 162.191 181.758 162.398 182.019 162.919Z" fill="#060606"/>
<path d="M184.642 161.14C184.229 161.069 185.109 160.071 185.19 160.422C185.271 160.772 186.305 160.502 185.999 160.79C185.694 161.077 185.891 161.563 185.478 161.688C185.064 161.814 185.217 161.23 184.642 161.14Z" fill="#060606"/>
<path d="M176.168 158.957C175.8 158.759 176.959 158.059 176.923 158.445C176.887 158.831 177.948 158.876 177.561 159.056C177.175 159.236 177.22 159.757 176.797 159.721C176.375 159.685 176.671 159.227 176.168 158.957Z" fill="#060606"/>
<path d="M161.394 180.198C160.972 180.26 161.853 181.267 161.942 180.925C162.032 180.584 163.048 180.844 162.742 180.557C162.437 180.269 162.643 179.775 162.23 179.658C161.817 179.542 161.969 180.108 161.394 180.198Z" fill="#060606"/>
<path d="M161.691 170.26C161.358 170.314 162.05 171.096 162.113 170.827C162.176 170.557 163.012 170.773 162.742 170.539C162.472 170.305 162.67 169.937 162.347 169.856C162.023 169.775 162.14 170.189 161.691 170.26Z" fill="#060606"/>
<path d="M156.981 176.182C156.648 176.182 157.34 177.017 157.403 176.748C157.466 176.478 158.302 176.685 158.032 176.46C157.762 176.236 157.96 175.849 157.637 175.777C157.313 175.705 157.43 176.11 156.981 176.182Z" fill="#060606"/>
<path d="M156.711 183.146C156.451 183.334 156.837 183.523 156.595 183.909C156.352 184.296 157.493 184.179 157.305 183.954" fill="#060606"/>
<path d="M165.816 186.11C165.646 186.389 166.715 186.38 166.526 186.155C166.338 185.931 167.048 185.454 166.724 185.49C166.401 185.526 166.212 185.149 165.942 185.347C165.673 185.544 166.059 185.715 165.816 186.11Z" fill="#060606"/>
<path d="M179.179 178.006C179 178.284 180.078 178.275 179.889 178.05C179.701 177.826 180.411 177.359 180.078 177.386C179.746 177.413 179.566 177.053 179.296 177.242C179.027 177.43 179.413 177.619 179.179 178.006Z" fill="#060606"/>
<path d="M162.139 167.51C162.265 167.816 162.858 166.953 162.58 166.962C162.301 166.971 162.301 166.136 162.139 166.423C161.978 166.711 161.573 166.648 161.582 166.98C161.591 167.313 161.951 167.097 162.139 167.51Z" fill="#060606"/>
<path d="M157.619 166.433C157.745 166.738 158.338 165.876 158.059 165.885C157.781 165.894 157.781 165.058 157.619 165.346C157.457 165.633 157.053 165.57 157.062 165.903C157.071 166.235 157.43 166.02 157.619 166.433Z" fill="#060606"/>
<path d="M165.187 164.204C164.864 164.258 165.547 165.04 165.61 164.77C165.672 164.501 166.508 164.716 166.248 164.483C165.987 164.249 166.167 163.881 165.843 163.8C165.52 163.719 165.636 164.132 165.187 164.204Z" fill="#060606"/>
<path d="M156.028 170.691C155.965 171.015 156.927 170.637 156.711 170.485C156.495 170.332 156.954 169.649 156.657 169.793C156.36 169.936 156.055 169.658 155.875 169.936C155.695 170.215 156.118 170.242 156.028 170.691Z" fill="#060606"/>
</g>
<defs>
<clipPath id="clip0_203_7026">
<rect width="239.951" height="292.023" fill="white" transform="translate(0.920898 0.544922)"/>
</clipPath>
</defs>
</svg>
