<svg width="266" height="274" viewBox="0 0 266 274" fill="none" xmlns="http://www.w3.org/2000/svg">
<g clip-path="url(#clip0_203_6983)">
<path d="M54.7086 197.115C56.7681 196.222 64.6743 198.009 64.6743 198.009L53.4746 228.979L60.1127 202.128C60.5127 200.503 59.5425 199.354 58.1213 198.724C57.7128 198.528 54.3086 197.286 54.7086 197.115Z" fill="#221F1F"/>
<path d="M52.2064 95.5689C52.0592 96.3971 51.6435 97.1537 51.0235 97.7221C50.5622 98.0491 50.0054 98.2137 49.4405 98.1901C45.8833 97.9917 42.478 96.6819 39.7046 94.4455C38.5225 93.5159 37.4567 92.4472 36.5303 91.2626C36.0619 90.6779 35.6272 90.067 35.2282 89.4329C35.0163 89.1195 34.8203 88.7957 34.6409 88.4627L34.3346 87.9351C34.2071 87.6877 34.1044 87.4283 34.0282 87.1606C33.2728 84.7105 32.8996 82.1586 32.9218 79.5948C32.9399 78.2424 33.1462 76.899 33.5346 75.6034C33.9618 74.1974 34.714 72.9117 35.7303 71.8503C36.3495 71.2234 37.0614 70.6953 37.8409 70.2844C38.593 69.8976 39.3867 69.5978 40.2067 69.3908C40.4275 69.3216 40.652 69.2648 40.8791 69.2206L41.4918 69.144C41.8748 69.1014 42.2577 69.0759 42.6577 69.0674C43.5183 69.0258 44.3799 69.1206 45.2109 69.3482C45.5631 69.4072 45.8959 69.5503 46.181 69.7652C46.3495 69.8884 46.4668 70.0691 46.5107 70.2731C46.5547 70.477 46.5221 70.69 46.4193 70.8716C46.195 71.2034 45.8697 71.4541 45.4917 71.5865C45.3215 71.6546 45.1002 71.8418 45.0151 71.7992C44.7836 71.7327 44.54 71.7195 44.3026 71.7608C44.0653 71.8021 43.8404 71.8967 43.6449 72.0375C43.263 72.3185 42.814 72.4946 42.3429 72.5482C42.1246 72.5354 41.9058 72.5354 41.6876 72.5482L41.3727 72.5907C41.3046 72.5907 41.3727 72.5907 41.3131 72.5907H41.1769C40.975 72.6485 40.7761 72.7167 40.5812 72.795L40.028 73.0588C39.3613 73.4176 38.7806 73.9171 38.3259 74.5226C37.9694 74.9871 37.6506 75.4794 37.3728 75.9949C36.9521 76.7384 36.6478 77.5421 36.4707 78.3778C36.2522 79.9943 36.2982 81.6356 36.6068 83.2373C36.709 83.85 36.8366 84.4883 37.0068 85.1436C37.0919 85.467 37.1856 85.7989 37.2792 86.1053C37.2991 86.1822 37.3338 86.2544 37.3813 86.3181L37.6451 86.7691C38.4103 88.0086 39.3218 89.1515 40.3599 90.1733C42.2163 92.0548 44.4822 93.482 46.981 94.3434C48.1322 94.72 49.3286 94.9404 50.5384 94.9987C51.015 95.1519 51.4915 95.3391 52.2064 95.5689Z" fill="#221F1F"/>
<path d="M114.468 78.1992C115.522 84.3141 116.207 90.4868 116.519 96.6839C116.881 102.934 116.63 109.205 115.771 115.407C115.293 118.558 114.524 121.658 113.473 124.666C112.398 127.749 110.774 130.612 108.681 133.117C106.515 135.626 103.659 137.443 100.469 138.343C97.3763 139.117 94.1405 139.117 91.0479 138.343C94.0837 138.406 97.1016 137.862 99.9242 136.743C102.593 135.601 104.906 133.764 106.622 131.424C108.297 129.032 109.581 126.389 110.426 123.594C111.335 120.748 111.998 117.83 112.409 114.871C112.903 111.901 113.183 108.871 113.396 105.841C113.609 102.811 113.737 99.7477 113.873 96.6839C114.077 90.5734 114.12 84.4033 114.468 78.1992Z" fill="#221F1F"/>
<path d="M71.7728 128.938C70.9002 129.152 69.9934 129.187 69.1071 129.04C68.2207 128.894 67.3732 128.57 66.6155 128.087C65.1889 127.191 64.0305 125.927 63.2624 124.428C62.5531 123.065 62.1549 121.563 62.0965 120.028C62.0413 118.397 62.3313 116.773 62.9475 115.262L63.2964 115.109C63.6028 115.73 63.8922 116.36 64.1475 116.998L64.9219 118.922C65.4199 120.195 65.9882 121.439 66.624 122.649C67.222 123.875 67.9742 125.019 68.8622 126.053C69.306 126.56 69.7898 127.029 70.309 127.458C70.5728 127.67 70.8196 127.9 71.1005 128.096L71.9515 128.683L71.7728 128.938Z" fill="#221F1F"/>
<path d="M97.9168 78.8966C98.7504 78.4024 99.6543 78.038 100.598 77.8158C101.261 77.6919 101.942 77.6919 102.606 77.8158C104.778 78.1337 106.986 78.1107 109.151 77.7477C111.262 77.4379 113.301 76.7488 115.167 75.7137C116.4 75.041 117.434 74.0546 118.163 72.8542C118.251 72.559 118.291 72.2516 118.282 71.9436C118.312 71.4249 118.312 70.9049 118.282 70.3862C118.225 69.2987 118.1 68.2157 117.908 67.1437C117.627 65.5037 117.212 63.8897 116.665 62.3183C116.206 60.8696 115.472 59.523 114.504 58.3524C114.192 57.966 113.761 57.6936 113.278 57.578H113.21H113.065H112.759L112.138 57.5184L110.895 57.4588C109.244 57.4099 107.591 57.5154 105.959 57.7737C104.049 58.0511 102.185 58.5865 100.419 59.3652C100.002 59.5524 99.5678 59.7566 99.2019 59.9779C98.8806 60.1591 98.5808 60.3761 98.3083 60.6247C97.7775 61.1152 97.3569 61.7127 97.0743 62.3779C97.016 62.6138 96.9243 62.8402 96.802 63.0502C96.6726 63.1843 96.5148 63.2876 96.3402 63.3525C96.1656 63.4173 95.9786 63.4421 95.7931 63.4249C95.6076 63.4078 95.4283 63.3491 95.2686 63.2533C95.1088 63.1575 94.9726 63.027 94.8701 62.8715C94.7509 62.7013 94.5382 62.463 94.5807 62.3013C94.8105 61.5353 94.8531 60.7353 95.0743 59.8928C95.2665 58.9832 95.7802 58.1735 96.5211 57.612C96.8929 57.3473 97.2825 57.1085 97.687 56.8971L98.7764 56.344C99.5083 55.995 100.249 55.6631 100.998 55.3653C102.501 54.7543 104.06 54.2898 105.653 53.978C106.927 53.7413 108.221 53.6358 109.516 53.6632C110.336 53.6857 111.154 53.7511 111.967 53.8589C112.376 53.9015 112.776 53.9781 113.176 54.0376C113.706 54.0951 114.227 54.2209 114.725 54.4121C115.794 54.8615 116.727 55.5833 117.431 56.5057C118.434 57.8363 119.224 59.3149 119.772 60.8885C120.472 62.8226 120.993 64.8167 121.329 66.8458C121.516 67.9352 121.669 69.0671 121.754 70.25C121.754 70.8458 121.823 71.4585 121.805 72.0968C121.807 72.4384 121.784 72.7797 121.737 73.1181C121.716 73.3242 121.682 73.5288 121.635 73.7308C121.572 73.9818 121.487 74.2268 121.38 74.4627C119.964 76.9552 117.712 78.8664 115.023 79.8583C112.79 80.7511 110.428 81.2771 108.027 81.4157C105.475 81.6159 102.908 81.3476 100.453 80.6243C100.05 80.4392 99.6601 80.2259 99.287 79.986C98.87 79.6711 98.4445 79.2881 97.9168 78.8966Z" fill="#221F1F"/>
<path d="M78.7243 62.3776C76.8734 63.5166 74.6671 63.9318 72.5288 63.5436C70.9595 63.3806 69.3788 63.3579 67.8055 63.4755C66.2567 63.5996 64.7251 63.8848 63.2354 64.3265C61.7514 64.7745 60.3236 65.3913 58.9802 66.1648C58.6483 66.352 58.3249 66.5478 58.01 66.7605C57.8772 66.8461 57.7519 66.9429 57.6356 67.0499C57.522 67.1305 57.414 67.2187 57.3122 67.3137C56.915 67.7387 56.5927 68.2278 56.359 68.7605C55.5505 70.786 55.6016 73.5604 56.0952 76.1646C56.4954 78.7537 57.524 81.2052 59.0908 83.3048C60.3996 84.976 62.2202 86.1718 64.2737 86.709C65.3204 86.9644 66.3966 87.0789 67.4736 87.0494C68.6407 87.01 69.8036 86.8906 70.9543 86.692C73.1919 86.3811 75.3529 85.6598 77.3286 84.5644C77.7436 84.3067 78.1288 84.0042 78.4776 83.6623C78.6376 83.5167 78.7778 83.3508 78.8946 83.1687C79.0294 83.0045 79.1437 82.8244 79.235 82.6325C79.6345 81.7423 79.8293 80.7739 79.8052 79.7985C79.7833 78.465 79.615 77.1379 79.303 75.8412C79.235 75.5007 79.1414 75.1603 79.0563 74.8199L78.7499 73.688C78.6478 73.3561 78.5797 73.0327 78.5031 72.7008L78.3839 72.1987C78.3839 72.0455 78.5371 71.9093 78.6052 71.7561C78.7765 71.4623 78.964 71.1782 79.1669 70.9051C79.339 70.6603 79.5237 70.4245 79.7201 70.1987C80.8711 68.8351 82.3939 67.8357 84.1029 67.3222C85.8551 66.872 87.7021 66.958 89.4049 67.569C89.9508 67.7139 90.4706 67.9437 90.9453 68.2498C92.0687 69.152 91.7367 70.0626 90.5878 70.2413C90.324 70.2838 90.0091 70.403 89.8219 70.3094C89.3636 70.0914 88.8714 69.9532 88.3666 69.9009C87.8926 69.8834 87.4183 69.9234 86.9539 70.02C86.1285 70.2443 85.3207 70.5287 84.5369 70.8711C83.7538 71.157 83.0525 71.6303 82.4944 72.2498L82.2902 72.4966L82.1881 72.6157C82.1617 72.6621 82.1389 72.7105 82.12 72.7604C82.12 72.8029 82.12 72.854 82.1711 72.888V72.9817L82.2987 73.3731C83.0771 75.5617 83.505 77.8595 83.5668 80.1815C83.5599 81.2379 83.3846 82.2865 83.0476 83.2878L82.7327 84.0623L82.3242 84.8112C82.0345 85.3467 81.6832 85.8465 81.2775 86.3005C80.319 87.2093 79.1991 87.9309 77.9754 88.4281C76.8722 88.8897 75.7339 89.2626 74.5713 89.543C73.1715 89.9005 71.7501 90.1677 70.3161 90.343C69.1537 90.4939 67.9818 90.5593 66.8098 90.5387C65.3361 90.5121 63.8751 90.2595 62.478 89.7898C60.8891 89.2293 59.4259 88.3618 58.1717 87.2367C56.85 86.0521 55.7442 84.6468 54.9037 83.0836C54.0465 81.5059 53.3971 79.8239 52.9719 78.0794C52.5171 76.3267 52.263 74.528 52.2145 72.7178C52.1237 70.7994 52.467 68.8853 53.2187 67.118C53.6502 66.1852 54.2536 65.3421 54.9973 64.6329L55.6016 64.1478L55.8994 63.918L56.1803 63.7393C56.5377 63.501 56.9037 63.2882 57.2696 63.084C59.9343 61.5953 62.8617 60.6358 65.8907 60.2585C68.0434 59.9806 70.2229 59.9806 72.3756 60.2585C73.9585 60.4713 74.9287 60.6841 75.0904 60.7266C75.6525 60.9009 76.2038 61.1083 76.7414 61.3479L78.7243 62.3776Z" fill="#221F1F"/>
<path d="M101.771 88.8885C101.731 88.507 101.642 88.1323 101.507 87.7736C101.369 87.3298 101.204 86.8949 101.013 86.4715C100.825 86.0121 100.612 85.5632 100.375 85.1269C100.162 84.6758 99.8898 84.2333 99.6345 83.7822C99.2515 83.1269 98.7834 82.5567 98.3324 81.8929C96.8358 79.5236 95.2167 77.234 93.4814 75.0335C92.69 74.0462 91.8304 73.1186 90.9964 72.1824C89.8882 70.9941 88.8483 69.7439 87.8816 68.4379C87.5837 68.0123 87.5752 68.1315 87.9327 68.3613C88.2901 68.591 89.1156 68.8634 89.9752 69.2974C92.9966 70.8231 95.6819 72.9384 97.8728 75.5185C99.1494 77.1015 100.724 78.5483 101.975 80.2674C103.416 82.1962 104.529 84.35 105.268 86.6417C105.801 88.2753 105.726 90.0465 105.056 91.6288C104.49 92.7926 103.557 93.7377 102.4 94.3181C101.367 94.843 100.244 95.1665 99.0898 95.2713C97.4469 95.4293 95.7904 95.3721 94.1623 95.1011C93.8133 95.033 93.4729 94.9564 93.124 94.8543C92.4568 94.6663 91.812 94.4066 91.2007 94.0798L91.0305 94.0203C91.4884 94.0745 91.9512 94.0745 92.4091 94.0203C93.846 93.8949 95.2696 93.6472 96.6643 93.2799C97.3343 93.1328 97.9962 92.951 98.6473 92.7352C99.1931 92.5312 99.7153 92.2687 100.205 91.9522C100.772 91.6187 101.23 91.128 101.524 90.5395C101.742 90.0361 101.804 89.4787 101.702 88.9395L101.771 88.8885Z" fill="#221F1F"/>
<path d="M39.1261 73.4924L53.5512 74.2584C53.787 72.8845 53.8612 71.4878 53.7725 70.0967L39.3048 69.3308C39.1092 70.7088 39.0494 72.1027 39.1261 73.4924Z" fill="#232020"/>
<path d="M46.063 59.8844C44.1142 64.6332 44.8801 70.3097 44.8801 70.3097C41.2036 69.1863 37.6888 71.0926 35.2123 75.8925C33.5102 79.2456 34.0549 84.1306 35.7484 87.5859C35.7586 87.6106 35.7601 87.638 35.7529 87.6636C35.7456 87.6893 35.7299 87.7118 35.7083 87.7275C35.6867 87.7432 35.6605 87.7512 35.6338 87.7502C35.6071 87.7492 35.5816 87.7393 35.5612 87.7221C29.23 80.7328 24.4013 72.5179 21.3744 63.5864C17.7575 52.7186 18.8213 40.5061 28.7529 32.3786C34.0293 28.0723 43.2206 28.2255 43.8163 27.383C53.782 13.7662 120.691 -25.3223 130.622 30.9829C131.524 36.1402 132.12 43.2124 128.384 47.374C115.482 61.7397 66.2582 40.055 63.9689 36.6168C63.7562 49.5272 46.1141 59.7397 46.063 59.8844Z" fill="#221F1F"/>
<path d="M123.889 16.7362C121.971 13.1335 119.21 10.048 115.842 7.74226C112.474 5.43658 108.598 3.9791 104.545 3.49396C100.403 2.94967 96.2029 3.00987 92.0775 3.67267C87.8906 4.31228 83.7713 5.335 79.7715 6.72793C73.8971 8.79296 68.2252 11.3939 62.8273 14.498C59.5386 16.3446 56.3589 18.3792 53.3041 20.5914C51.7893 21.7063 50.3085 22.8637 48.9043 24.0807C48.2064 24.702 47.5171 25.3233 46.8788 25.9786C46.5469 26.2935 46.249 26.6339 45.9341 26.9658L45.4916 27.4679C45.3299 27.6636 45.2788 27.7402 44.981 28.1147C44.7618 28.4122 44.4683 28.647 44.1299 28.7955C43.9571 28.8716 43.7776 28.9314 43.5938 28.9742L43.1257 29.0849C42.6236 29.187 42.164 29.2551 41.713 29.3232C40.8024 29.4593 39.9173 29.5955 39.0322 29.7487C37.2977 30.0362 35.5899 30.4661 33.926 31.0338C32.3245 31.5631 30.8271 32.3665 29.5006 33.4082C28.1527 34.5081 26.9208 35.7428 25.8241 37.0932C25.5517 37.4336 25.2709 37.7655 25.0156 38.1145L24.3007 39.2038L23.9433 39.7485L23.6369 40.3187L23.0156 41.4676C22.2747 43.042 21.7041 44.691 21.3135 46.3866C20.5379 49.8245 20.4023 53.3759 20.9136 56.863C21.7006 61.6475 23.21 66.2847 25.39 70.6159C26.4297 72.8121 27.5859 74.9513 28.8538 77.0242C29.4835 78.0625 30.1559 79.0753 30.8452 80.071L31.3218 80.7603L31.6026 81.1348C31.7899 81.3986 31.9601 81.6114 32.1303 81.8326C32.6239 82.4539 33.1345 83.0411 33.6451 83.5347C33.6451 83.5858 33.7558 83.5347 33.7302 83.4752L33.6621 83.339C33.6173 83.2447 33.5775 83.1481 33.543 83.0496C33.4609 82.8639 33.3899 82.6735 33.3302 82.4794C33.2074 82.1048 33.1163 81.7205 33.0579 81.3305C33.0579 81.1603 33.0153 80.9901 32.9898 80.8199C32.9643 80.6497 32.9898 80.4965 32.9898 80.2497V80.071V79.7391C32.9898 79.5263 32.9898 79.305 33.0409 79.0838C33.0919 78.6497 33.16 78.2327 33.2536 77.7732C33.452 76.887 33.7608 76.0293 34.1728 75.22C34.5705 74.4538 35.0227 73.7172 35.5259 73.0158C36.558 71.5179 37.9552 70.3081 39.5854 69.501C40.4513 69.1023 41.383 68.8657 42.3342 68.8031H42.6917H42.8278H43.0746C43.2396 68.8238 43.4021 68.8608 43.5597 68.9138C43.6108 68.9138 43.5597 68.9138 43.5597 68.8542V67.4074C43.5597 67.0585 43.5597 66.7181 43.6023 66.3691C43.6736 64.9891 43.873 63.6187 44.198 62.2756C44.343 61.3315 44.7499 60.4469 45.3724 59.7225C45.6618 59.5268 45.7895 59.9438 45.7809 60.7693C45.7724 61.5948 45.7809 62.8884 45.8235 64.4969C45.8235 65.3053 45.9341 66.1989 46.0363 67.1606L46.1299 67.8925C46.1299 68.2755 46.2235 68.7436 46.2745 69.2627C46.4448 70.3095 46.615 71.3903 46.7852 72.5137L44.9214 72.1222C44.5878 72.0401 44.2496 71.9775 43.9087 71.935L43.4151 71.8669H43.1597H43.0321H42.981H42.8363C42.3305 71.9221 41.8348 72.0482 41.3641 72.2414C40.2943 72.7342 39.3556 73.4717 38.6237 74.3945C38.1395 74.9784 37.7094 75.6051 37.3386 76.2668C36.9636 76.8696 36.677 77.523 36.4876 78.2072C36.2935 78.9206 36.1877 79.6552 36.1727 80.3944V81.5603C36.1727 81.9943 36.2919 82.505 36.3514 82.973L36.4025 83.3305L36.5131 83.756L36.7514 84.607C36.845 84.9134 36.8791 85.1517 37.0152 85.5177L37.5259 86.7432L37.662 87.441L37.7301 87.7899C37.7301 87.9261 37.7301 87.9176 37.7301 87.9857L37.5429 88.5899C37.4918 88.8452 37.4067 88.8538 37.3386 88.9644C37.2759 89.0536 37.2076 89.1389 37.1344 89.2197C37.0074 89.3458 36.8643 89.4545 36.7089 89.5431L36.5046 89.6452C36.3394 89.7058 36.1682 89.7486 35.994 89.7729L35.7557 89.8239C35.6961 89.8665 35.5174 89.824 35.4068 89.7644L34.6493 89.5601C34.5472 89.6027 34.3174 89.3048 34.1302 89.1176L33.543 88.5048L32.9643 87.8921L32.6664 87.5857L32.3601 87.2112C31.509 86.19 30.658 85.2198 29.9261 84.139L28.7601 82.5645L28.1389 81.6539C27.7304 81.0667 27.3559 80.4625 26.9644 79.8582C23.8869 75.0293 21.4118 69.8419 19.5944 64.4117C17.6639 58.8283 17.175 52.8477 18.1732 47.0249C19.2651 41.1043 22.3967 35.7533 27.024 31.9018C27.3049 31.655 27.5772 31.4082 27.8751 31.1699C28.1729 30.9316 28.5133 30.6934 28.8453 30.4721C29.5045 30.0521 30.1895 29.674 30.8963 29.3402C32.283 28.7018 33.7242 28.1892 35.2025 27.8083C36.6663 27.4338 38.1301 27.153 39.5939 26.9147L41.747 26.5743L42.2576 26.4892L42.6661 26.4041C42.7245 26.4009 42.7811 26.3837 42.8315 26.3541C42.8818 26.3245 42.9243 26.2833 42.9555 26.2339L43.1683 25.97C43.2704 25.8339 43.381 25.7147 43.4917 25.5871C43.7044 25.3318 43.9257 25.0764 44.1469 24.8382C44.598 24.3531 45.0576 23.8935 45.5256 23.4339C46.4533 22.5318 47.4235 21.6808 48.4192 20.8808C50.3936 19.2298 52.4616 17.7149 54.5807 16.2681C58.8127 13.3935 63.25 10.8335 67.8569 8.60874C71.8341 6.67135 75.9402 5.0107 80.1459 3.63863C84.3879 2.2195 88.757 1.21344 93.1924 0.634444C97.6478 0.0302189 102.17 0.124975 106.596 0.915291C111.073 1.73328 115.289 3.60948 118.894 6.38751C123.231 9.91188 126.558 14.5219 128.536 19.7489C129.561 22.2927 130.372 24.9173 130.962 27.5955C131.58 30.2612 131.999 32.9694 132.213 35.6975C132.375 37.8101 132.269 39.9347 131.898 42.0208C131.686 43.0896 131.364 44.1335 130.936 45.1356C130.472 46.1513 129.868 47.0967 129.14 47.944C127.632 49.5184 125.788 50.7316 123.745 51.4929C121.761 52.2372 119.685 52.7096 117.575 52.8971C113.448 53.2284 109.296 53.0626 105.209 52.4035C101.175 51.7827 97.1797 50.9303 93.2434 49.8504C88.3159 48.5142 83.5075 46.9228 78.7758 45.1526C76.4155 44.2675 74.0837 43.3144 71.7802 42.2931C70.6313 41.791 69.4824 41.2633 68.3761 40.6931C67.8059 40.4208 67.2442 40.1229 66.674 39.8421L66.2485 39.6208L65.9251 39.4336L65.5761 39.2378C65.3527 39.1114 65.1443 38.9601 64.9549 38.7868C64.8868 38.6847 64.9038 38.7868 64.8953 38.8719V39.0932C64.8901 39.2358 64.8758 39.3779 64.8528 39.5187C64.8475 39.6275 64.8333 39.7356 64.8102 39.8421L64.7081 40.3442C64.5634 40.8974 64.4187 41.4506 64.2315 41.9867C63.2734 44.6924 61.8728 47.2203 60.0869 49.4674C58.7136 51.2088 57.1932 52.8289 55.5424 54.3098C54.4325 55.3173 53.2616 56.2552 52.0361 57.1183C50.7123 58.125 49.2153 58.8808 47.6192 59.348C47.1266 59.5001 46.623 59.6139 46.1128 59.6885C46.0789 59.6927 46.0446 59.6927 46.0107 59.6885L45.8746 59.7395C45.8065 59.7395 45.7639 59.7821 45.7639 59.7395C45.7639 59.697 45.9256 59.4842 45.9086 59.4587C45.9487 59.3845 45.9942 59.3134 46.0448 59.2459C46.4778 58.7491 46.9503 58.288 47.4575 57.8672C48.8277 56.6502 51.0659 54.8545 53.6786 52.3269C55.7145 50.379 57.5296 48.2128 59.0912 45.8675C59.8465 44.7008 60.4932 43.4673 61.0231 42.1825C61.2886 41.5517 61.5104 40.9033 61.6869 40.2421L61.8231 39.7485L61.9677 39.0676C62.1058 38.3431 62.1884 37.6091 62.2145 36.8719C62.5975 36.7017 63.1166 36.506 63.2443 36.4209L63.5592 36.2592C63.6698 36.2081 63.789 36.1315 63.8485 36.1571C64.0661 36.1411 64.2822 36.1098 64.4953 36.0634L65.04 35.9443L65.6698 35.7996C66.0527 36.0549 66.4442 36.3273 66.8272 36.557L67.7463 37.0847L68.9718 37.7315C69.8228 38.157 70.6739 38.5825 71.5249 38.9655C73.227 39.7655 75.0057 40.5314 76.7843 41.2548C80.3502 42.7101 84.0012 44.0462 87.7117 45.2462C95.1157 47.6036 102.801 49.544 110.494 50.1142C112.565 50.276 114.645 50.276 116.715 50.1142C118.71 49.9886 120.676 49.5758 122.553 48.8887C124.291 48.2622 125.849 47.2189 127.089 45.8505C127.655 45.1734 128.101 44.405 128.408 43.5782C128.75 42.6985 128.987 41.7815 129.115 40.8463C129.685 36.9741 129.038 32.7018 128.145 28.5743C127.7 26.5191 127.132 24.4928 126.443 22.5063C125.743 20.5523 124.889 18.657 123.889 16.8383V16.7362Z" fill="#221F1F"/>
<path d="M65.2525 125.074C65.7691 126.684 65.8397 128.405 65.4568 130.052C65.4363 130.157 65.3802 130.251 65.2979 130.319C65.2156 130.387 65.1123 130.424 65.0057 130.424C64.8991 130.424 64.7958 130.387 64.7135 130.319C64.6312 130.251 64.5751 130.157 64.5547 130.052C64.1972 129.04 63.8313 128.018 63.5079 126.98C63.4228 126.648 62.759 123.95 62.0015 120.904C61.2441 117.857 60.2994 114.478 59.7888 112.785C58.8016 109.508 57.8399 106.215 56.6315 103.117C56.4783 102.725 56.3166 102.342 56.1464 101.968L55.9081 101.44L56.5804 111.653C56.674 113.219 56.7506 114.785 56.7932 116.351L56.8527 118.368C56.8527 119.04 56.8527 119.653 56.9293 120.316L57.1931 124.333C57.2697 125.695 57.3293 127.091 57.2783 128.521C57.2512 129.25 57.183 129.977 57.074 130.699C57.0229 131.065 56.9378 131.448 56.8527 131.823C56.7676 132.197 56.6485 132.52 56.5464 132.878C56.257 133.806 55.874 134.699 55.5762 135.567C55.1692 136.581 54.6914 137.565 54.1464 138.512C53.3464 139.959 52.2401 141.703 51.0997 143.397L47.8658 148.103C46.9466 149.448 46.3084 150.469 46.053 150.852C43.5468 154.673 41.523 158.789 40.0277 163.107C39.8149 163.72 39.6447 164.401 39.3894 164.954C38.8374 166.258 38.4321 167.62 38.1809 169.013C37.7554 170.954 37.3809 172.911 36.998 174.868C36.8107 175.839 36.5299 176.783 36.2831 177.736C36.0363 178.69 35.7469 178.068 35.7469 177.736C35.7469 176.826 35.4831 177.532 35.3129 177.592C35.1427 177.651 35.1853 177.592 35.1512 177.592C35.1332 177.414 35.1332 177.234 35.1512 177.056C35.1512 176.724 35.2108 176.264 35.2448 175.703C35.3384 174.588 35.4661 173.09 35.6448 171.558C35.8952 169.237 36.2788 166.933 36.7937 164.656C36.7937 164.579 37.0831 163.481 37.5767 161.856C38.1894 159.864 38.9082 157.907 39.7298 155.992C41.1204 152.819 42.7476 149.755 44.5978 146.827C45.1424 145.975 45.7637 145.124 46.3594 144.35C46.4871 144.146 48.487 141.278 50.2402 138.393C51.0421 137.067 51.7695 135.697 52.4188 134.291C52.9294 133.142 53.1847 132.325 53.2699 132.214C53.4721 131.638 53.637 131.05 53.7635 130.452C53.8674 129.841 53.9357 129.225 53.9677 128.606C54.0443 127.329 54.0188 125.993 54.0443 124.64C54.0397 124.091 54.0056 123.543 53.9422 122.997C53.8315 121.806 53.7209 120.606 53.6528 119.355L53.4571 115.755L53.0826 108.598L52.8614 104.938L52.589 100.947C52.538 100.096 52.5209 99.3127 52.4869 98.5212C52.5595 98.1856 52.6562 97.8557 52.7762 97.534C52.8151 97.3814 52.8693 97.2332 52.9379 97.0915L53.1252 96.8447C53.1252 96.751 53.4145 96.5894 53.6018 96.4532C53.8052 96.3182 54.0295 96.2176 54.2656 96.1553C54.7024 96.0479 55.1612 96.0716 55.5847 96.2234C56.5293 96.6055 57.3197 97.2912 57.8314 98.1723C58.1765 98.7209 58.4891 99.2892 58.7676 99.8744L59.0569 100.487L59.2867 101.015C59.5846 101.713 59.8484 102.411 60.1378 103.117C61.142 105.917 61.9505 108.734 62.759 111.551C63.1589 112.844 64.393 119.142 64.7419 120.648C64.844 121.482 65.0312 124.333 65.2525 125.074Z" fill="#221F1F"/>
<path d="M62.8115 132.096C62.5297 132.23 62.2121 132.271 61.9056 132.211C61.5991 132.151 61.32 131.994 61.1094 131.764C60.9222 131.61 60.7775 131.023 60.9222 130.913C61.2046 130.661 61.5031 130.428 61.8158 130.215C62.003 130.087 65.2199 128.955 66.2922 128.564C67.3462 128.194 68.4202 127.884 69.5092 127.636C71.7219 127.117 73.9431 126.589 76.1983 126.155C76.702 126.063 77.2107 126.001 77.7217 125.968C78.1217 125.968 78.7174 125.891 79.2451 125.908C80.8489 125.949 82.4123 126.42 83.7726 127.27C84.0428 127.464 84.3273 127.638 84.6236 127.789C85.5276 128.395 86.3148 129.159 86.947 130.045C87.6024 130.909 88.151 131.849 88.581 132.844C89.1387 134.379 89.5213 135.972 89.7214 137.593C89.7723 137.82 89.7723 138.056 89.7214 138.283C89.6088 138.771 89.5886 139.276 89.6618 139.772C89.6884 140.468 89.6342 141.165 89.5001 141.849C89.3975 142.188 89.2425 142.51 89.0405 142.802C88.8788 143.083 88.5469 142.802 88.5299 142.725C88.4703 142.419 88.2491 142.614 88.0874 142.606C88.0338 142.615 87.9792 142.615 87.9257 142.606C87.8831 142.606 87.8746 141.712 87.6959 140.827C87.5172 139.942 87.2278 139.032 87.2023 138.844C87.2023 138.844 87.1427 138.504 87.0151 138.036C86.8706 137.457 86.6886 136.889 86.4704 136.334C86.1312 135.405 85.6947 134.515 85.1683 133.679C85.0204 133.431 84.8924 133.172 84.7853 132.904C84.4079 132.345 83.9745 131.826 83.4918 131.355C83.0428 130.906 82.5396 130.514 81.9939 130.189C81.4169 129.856 80.8233 129.552 80.2153 129.279C80.0987 129.213 79.9655 129.184 79.8323 129.194C79.549 129.172 79.2645 129.172 78.9813 129.194L78.5302 129.236L77.9685 129.321L75.7303 129.653C74.9643 129.781 74.2154 129.968 73.458 130.138C73.3163 130.147 73.1742 130.147 73.0325 130.138C72.8552 130.148 72.6788 130.17 72.5048 130.206C70.7177 130.649 68.8879 130.955 67.1263 131.517C66.7178 131.645 64.6753 131.883 64.2157 132.053C64.0029 132.13 63.0328 131.959 62.8115 132.096Z" fill="#221F1F"/>
<path d="M70.564 136.759C70.0874 136.844 69.764 136.444 69.5853 135.763C69.5569 135.459 69.6451 135.154 69.8321 134.912C70.0881 134.8 70.3528 134.709 70.6236 134.64C70.7598 134.64 73.1767 134.708 74.0277 134.708C74.8419 134.726 75.6532 134.811 76.4532 134.963C78.2018 135.229 79.9148 135.691 81.5595 136.342C81.7516 136.425 81.9392 136.519 82.1211 136.623C82.3261 136.748 82.5223 136.888 82.7084 137.04C83.8702 138.016 84.8374 139.203 85.5593 140.538C85.6615 140.756 85.7932 140.959 85.9508 141.142C86.3412 141.81 86.6281 142.533 86.8019 143.286C86.9985 144.058 87.1126 144.848 87.1423 145.644C87.0728 146.868 86.8556 148.08 86.4955 149.252C86.4359 149.423 86.4274 149.61 86.2827 149.737C86.0196 150.022 85.8246 150.362 85.7125 150.733C85.6147 150.977 85.489 151.208 85.3381 151.423C85.1964 151.645 85.0371 151.856 84.8615 152.052C84.6516 152.226 84.4162 152.367 84.1636 152.469C83.9509 152.58 83.7466 152.231 83.7551 152.146C83.7551 151.908 83.5509 151.925 83.4232 151.84C83.3771 151.807 83.3343 151.77 83.2956 151.729C83.2956 151.678 83.5254 151.142 83.6105 150.512C83.6883 150.064 83.7423 149.612 83.7722 149.159C83.7722 149.159 83.8147 148.929 83.8743 148.614C83.9259 148.213 83.9486 147.81 83.9424 147.406C83.9517 146.727 83.8773 146.049 83.7211 145.389C83.6997 145.185 83.6997 144.98 83.7211 144.776C83.4906 143.851 83.1265 142.965 82.6403 142.146C82.5331 141.908 82.4049 141.68 82.2573 141.465C82.1241 141.248 82.0156 141.017 81.9339 140.776C81.8985 140.681 81.84 140.596 81.7637 140.529C81.4834 140.252 81.1786 140.002 80.8531 139.78C80.6793 139.653 80.4941 139.542 80.2999 139.448C80.0957 139.329 79.8574 139.244 79.6361 139.133C79.1561 138.95 78.6642 138.799 78.1638 138.682C78.0702 138.653 77.9791 138.616 77.8915 138.572C77.7832 138.514 77.6691 138.469 77.5511 138.436C76.2909 138.128 75.0114 137.906 73.7214 137.772C73.415 137.772 72.0193 137.27 71.6278 137.244C71.3385 137.244 70.7512 136.725 70.564 136.759Z" fill="#221F1F"/>
<path d="M68.1386 142.555C67.7812 142.708 67.5088 142.41 67.228 141.849C67.1344 141.661 67.1003 141.1 67.228 140.998C67.4281 140.836 67.645 140.696 67.8748 140.581C68.8391 140.431 69.8106 140.331 70.7853 140.283C71.1227 140.266 71.4607 140.266 71.7981 140.283C73.7968 140.361 75.7215 141.06 77.3043 142.283C77.5982 142.527 77.8535 142.814 78.0617 143.134C78.8323 144.155 79.4092 145.309 79.7638 146.538C79.8083 146.751 79.8739 146.959 79.9595 147.159C80.1583 147.854 80.1903 148.586 80.0532 149.295C79.946 150.002 79.7247 150.686 79.3979 151.321C78.852 152.163 78.2218 152.947 77.5171 153.661C77.4234 153.763 77.3554 153.891 77.2022 153.925C76.9154 154.019 76.6692 154.208 76.5043 154.461C76.2415 154.747 75.957 155.011 75.6533 155.253C75.4736 155.361 75.2785 155.441 75.0746 155.491C74.8874 155.559 74.6831 155.253 74.6916 155.185C74.6916 154.989 74.5044 154.98 74.3852 154.895C74.339 154.873 74.2983 154.841 74.2661 154.802C74.5488 154.021 74.8814 153.259 75.2618 152.521L75.5426 152.095C75.6958 151.848 75.8916 151.525 76.0703 151.193C76.3284 150.716 76.5312 150.21 76.6745 149.687C76.7078 149.538 76.7748 149.398 76.8703 149.278C76.9282 148.944 76.9482 148.604 76.9298 148.266C76.9041 147.944 76.8384 147.626 76.7341 147.321C76.7341 146.938 76.4618 146.649 76.4703 146.215C76.4595 146.135 76.4237 146.06 76.3682 146.002C75.9789 145.417 75.5025 144.894 74.9554 144.453C74.6494 144.23 74.3144 144.049 73.9597 143.917C73.8949 143.882 73.8348 143.839 73.781 143.789C73.7124 143.733 73.6347 143.69 73.5512 143.661C73.1217 143.516 72.6803 143.408 72.2321 143.338C71.7051 143.262 71.1731 143.225 70.6407 143.227C70.3853 143.227 69.2279 142.895 68.9386 142.921C68.7854 142.913 68.2748 142.555 68.1386 142.555Z" fill="#221F1F"/>
<path d="M68.6155 149.056C68.5609 148.971 68.5319 148.872 68.5319 148.771C68.5319 148.67 68.5609 148.571 68.6155 148.486L68.7262 148.376C68.7772 148.376 68.6496 148.376 69.0241 148.29C69.1301 148.27 69.233 148.235 69.3304 148.188C69.3304 148.188 69.39 148.188 69.3985 148.146C69.4805 148.189 69.5702 148.215 69.6623 148.222L69.8496 148.265H69.7474L69.5176 148.367C69.3219 148.461 68.7177 148.435 68.6666 148.273C68.6081 148.173 68.5787 148.058 68.5815 147.942C68.5773 147.885 68.5773 147.828 68.5815 147.771C68.6167 147.701 68.6565 147.632 68.7007 147.567C68.8177 147.409 68.986 147.296 69.1769 147.248C69.3677 147.2 69.5694 147.219 69.7474 147.303C69.8396 147.345 69.9256 147.399 70.0027 147.465L70.0623 147.542L70.1474 147.644C70.207 147.737 70.207 147.754 70.224 147.771L70.2751 147.89C70.3048 147.955 70.3389 148.018 70.3772 148.078C70.4672 148.224 70.5495 148.374 70.624 148.529C70.7458 149.052 70.8283 149.584 70.8708 150.12C70.9559 150.903 71.007 151.78 71.0325 152.231C71.0689 153.085 71.0175 153.94 70.8793 154.784C70.6452 156.524 70.284 158.245 69.7985 159.933C69.6828 160.311 69.5347 160.678 69.356 161.031C68.7432 162.248 68.2156 163.473 67.6539 164.707C67.5342 164.904 67.4479 165.12 67.3986 165.345C67.1275 166.046 66.764 166.707 66.3177 167.311C65.8865 167.972 65.3874 168.585 64.8284 169.141C63.909 169.94 62.924 170.66 61.8838 171.294C61.7527 171.409 61.5945 171.488 61.4243 171.524C61.0466 171.56 60.6868 171.701 60.386 171.933C59.9471 172.184 59.4819 172.387 58.9988 172.537C58.7419 172.594 58.4774 172.608 58.2158 172.579C57.9775 172.579 57.9265 172.179 57.9775 172.12C58.1222 171.915 57.8924 171.83 57.8073 171.694C57.7778 171.65 57.7548 171.601 57.7393 171.55C57.7393 171.498 58.2584 171.056 58.7605 170.571C59.2626 170.086 59.7392 169.558 59.8498 169.482L60.3264 169.09C60.5988 168.852 60.9477 168.528 61.2796 168.179C61.7908 167.654 62.255 167.084 62.6668 166.477C62.7977 166.301 62.9524 166.143 63.1263 166.009C63.4413 165.579 63.7257 165.127 63.9774 164.656C64.3348 163.984 64.6412 163.286 64.6667 163.235C64.9108 162.664 65.2222 162.124 65.5944 161.626C65.67 161.528 65.7249 161.415 65.7561 161.294C66.122 160.29 66.539 159.303 66.8709 158.265C67.0286 157.733 67.1564 157.193 67.2539 156.648C67.2539 156.554 67.3305 156.461 67.3645 156.367C67.4197 156.25 67.4625 156.127 67.4922 156.001C67.7749 154.708 67.9429 153.392 67.9943 152.069C67.9943 151.771 68.3517 150.367 68.3007 149.984C68.2922 149.865 68.6921 149.227 68.6155 149.056Z" fill="#221F1F"/>
<path d="M72.1037 188.511C72.1147 189.057 71.9504 189.592 71.6349 190.038C71.3193 190.484 70.8692 190.816 70.3505 190.987C70.0356 191.064 69.6697 190.562 69.7207 190.358C69.8264 189.874 69.8806 189.381 69.8824 188.885C70.0365 187.843 70.0793 186.788 70.0101 185.737C69.9615 184.966 69.8361 184.202 69.6356 183.456C69.6356 183.294 69.525 183.183 69.4824 183.047C69.4399 182.911 69.4059 182.903 69.3888 182.903C69.3696 182.895 69.3485 182.895 69.3293 182.903C69.3293 182.903 69.2867 182.903 69.1931 182.843C68.4635 182.548 67.7046 182.331 66.9293 182.196C66.0783 182.009 65.1507 181.864 64.24 181.737C60.4276 181.255 56.5928 180.971 52.751 180.886C51.9 180.886 51.0489 180.817 50.1979 180.741C47.2534 180.511 44.2977 180.46 41.3471 180.588C40.8536 180.58 40.3606 180.62 39.8748 180.707C39.4918 180.792 37.3216 180.886 35.0919 181.03C34.0026 181.098 32.8877 181.192 32.0963 181.303L31.6282 181.379C31.6282 181.379 31.6282 181.439 31.5856 181.294C31.508 181.088 31.42 180.887 31.3218 180.69L31.2537 180.537C31.1601 180.341 31.9856 182.188 31.6367 181.388H31.5856H31.5346C31.424 181.437 31.3186 181.497 31.2197 181.566C30.4633 182.146 29.9262 182.965 29.6963 183.89C29.3773 184.872 29.339 185.925 29.5857 186.928C29.6538 187.175 29.824 187.413 29.8836 187.677C29.9864 187.991 30.1518 188.281 30.3697 188.53C30.5876 188.779 30.8536 188.981 31.1516 189.124C32.0208 189.633 32.9619 190.009 33.943 190.239C34.4366 190.366 34.9387 190.562 35.4579 190.698C35.977 190.834 35.6621 191.192 35.4579 191.226C34.9473 191.319 35.3472 191.515 35.3898 191.677C35.4067 191.729 35.4067 191.786 35.3898 191.839C35.0246 191.901 34.6536 191.924 34.2834 191.907C33.4527 191.901 32.625 191.804 31.8154 191.617C30.9081 191.412 30.044 191.049 29.2623 190.545C28.7649 190.23 28.3198 189.84 27.9432 189.388C27.5116 188.855 27.1774 188.249 26.956 187.6C26.5469 186.281 26.4651 184.882 26.7177 183.524C26.9544 182.07 27.5775 180.706 28.5219 179.575C28.933 179.102 29.426 178.707 29.9772 178.409C30.0831 178.341 30.1941 178.281 30.3091 178.23L30.6835 178.094C30.8202 178.049 30.9594 178.012 31.1005 177.984C31.7055 177.861 32.3215 177.801 32.9388 177.805C33.075 177.805 35.0579 177.567 37.0068 177.439C38.9556 177.311 40.9301 177.201 41.0747 177.201C42.6353 177.115 44.2001 177.149 45.7555 177.303C46.0671 177.324 46.3799 177.324 46.6916 177.303C49.3724 177.303 52.0532 177.405 54.7339 177.575L58.8444 177.796C59.0998 177.796 59.338 177.864 59.5849 177.898C59.8316 177.932 60.2061 178.001 60.521 178.018C62.1493 178.142 63.7805 178.341 65.4145 178.613C66.2655 178.741 67.057 178.894 67.8995 179.098C68.8017 179.286 69.6806 179.571 70.5207 179.949C70.6314 180.001 70.7931 180.094 70.9888 180.205C71.2721 180.408 71.5293 180.645 71.7547 180.911C71.8752 181.084 71.986 181.263 72.0866 181.447C72.1717 181.643 72.2398 181.813 72.2994 181.992C72.3963 182.307 72.4703 182.628 72.5207 182.954C72.6446 183.907 72.6986 184.869 72.6824 185.83C72.5406 186.734 72.3474 187.629 72.1037 188.511Z" fill="#221F1F"/>
<path d="M39.9176 190.391C39.5149 190.56 39.078 190.63 38.6429 190.596C38.2078 190.562 37.7871 190.425 37.4155 190.196C37.1602 190.059 37.0411 189.464 37.2793 189.345C37.7436 189.037 38.2269 188.758 38.7261 188.511C38.8793 188.434 40.2069 188.034 41.7218 187.66C43.2366 187.285 44.9557 186.885 45.8238 186.698C47.5098 186.353 49.2149 186.108 50.93 185.966C54.4413 185.57 57.9782 185.447 61.5085 185.6C62.3157 185.655 63.1178 185.769 63.9084 185.94C65.3044 186.216 66.6761 186.603 68.0104 187.098C69.4624 187.628 70.7852 188.46 71.8911 189.54L72.9549 190.732C73.1076 190.906 73.239 191.097 73.3464 191.302C73.6899 191.858 73.8845 192.493 73.9113 193.146C73.9382 193.799 73.7964 194.447 73.4996 195.03C73.2099 195.633 72.8312 196.19 72.3762 196.681C71.8721 197.201 71.2707 197.617 70.6061 197.906C70.0612 198.135 69.4891 198.292 68.904 198.374C68.2563 198.472 67.5999 198.497 66.9466 198.451C65.67 198.34 64.5041 198.085 63.4318 197.915C62.3595 197.744 61.1765 197.566 60.0787 197.43C59.765 197.424 59.4533 197.378 59.1511 197.293C58.5077 197.078 57.8247 197.008 57.1511 197.089C56.2272 197.127 55.3064 197.221 54.3938 197.37C53.9342 197.447 53.4661 197.447 52.9895 197.498C52.9303 197.513 52.8676 197.507 52.8123 197.48C52.757 197.454 52.7125 197.41 52.6864 197.355C52.6603 197.299 52.6542 197.237 52.6691 197.177C52.684 197.118 52.7191 197.066 52.7683 197.03C53.1427 196.766 52.7683 196.715 52.6491 196.587C52.608 196.546 52.5836 196.492 52.581 196.434C52.8491 196.256 53.1341 196.104 53.4321 195.983C54.0881 195.684 54.7686 195.442 55.4661 195.259C56.6229 194.95 57.81 194.767 59.0064 194.715C59.0064 194.715 59.6191 194.715 60.4532 194.715C61.2872 194.715 62.3765 194.817 63.4658 194.885C64.5552 194.953 65.6956 195.089 66.5211 195.098C67.0418 195.121 67.5635 195.093 68.0785 195.013C68.4444 194.936 68.8274 194.944 69.1253 194.851C69.342 194.773 69.5436 194.658 69.721 194.51L69.9252 194.306C69.9763 194.221 70.0359 194.153 70.1125 194.042C70.2662 193.832 70.3814 193.595 70.4529 193.345C70.4529 193.183 70.4529 193.225 70.4529 193.123C70.3624 192.939 70.257 192.763 70.138 192.596C69.9674 192.348 69.7737 192.117 69.5593 191.906C68.7879 191.155 67.8998 190.535 66.9296 190.068C66.7227 189.943 66.495 189.856 66.2573 189.813C64.1379 189.232 61.9594 188.896 59.7638 188.808C58.6064 188.757 57.449 188.808 56.2746 188.851C56.0703 188.851 55.8575 188.851 55.6448 188.851C55.432 188.851 55.1086 188.851 54.8448 188.851L50.6577 189.174C49.262 189.294 47.8748 189.455 46.5046 189.711C45.8748 189.813 42.8026 190.051 42.0877 190.255C41.6792 190.357 40.2665 190.213 39.9176 190.391Z" fill="#221F1F"/>
<path d="M12.7781 228C12.676 228.681 12.1143 229.013 11.2462 229.157C10.9654 229.2 10.3356 228.885 10.3271 228.672C10.2972 228.261 10.2972 227.849 10.3271 227.438C10.3271 227.191 11.6292 223.745 12.0292 222.579C12.4521 221.449 12.9497 220.349 13.5185 219.285C14.6248 217.106 15.7397 214.928 16.9226 212.766C17.1768 212.286 17.4611 211.823 17.7737 211.379C18.8304 209.845 19.7774 208.238 20.6076 206.57C20.7684 206.306 20.8889 206.019 20.9651 205.719C21.8234 203.841 22.8101 202.024 23.9182 200.281C24.8969 198.971 25.816 197.626 26.7692 196.307C26.9053 196.12 26.9904 195.881 27.2117 195.762C27.6367 195.472 27.975 195.072 28.1904 194.605C28.5649 194.026 28.9564 193.447 29.3904 192.903C29.6455 192.635 29.9312 192.398 30.2414 192.196C30.4967 191.992 30.7946 192.358 30.7776 192.477C30.7776 192.818 31.0499 192.707 31.2201 192.775C31.2822 192.791 31.3402 192.82 31.3903 192.86C30.9846 194.308 30.49 195.729 29.9095 197.115C29.9095 197.158 29.2117 198.477 28.4968 199.847C27.7819 201.217 27.0585 202.673 26.9224 202.979C26.7638 203.285 26.5696 203.57 26.3437 203.83C26.2415 203.966 24.2161 208.145 24.1224 208.307C23.7089 209.18 23.1917 210 22.5821 210.749C22.4554 210.896 22.3547 211.062 22.2842 211.243C21.5353 212.715 20.6672 214.119 19.8332 215.549C19.4162 216.281 19.0502 217.047 18.6588 217.796C18.5907 217.923 18.4886 218.043 18.4035 218.17C18.2876 218.325 18.1824 218.487 18.0886 218.655C17.2375 220.443 16.1567 222.153 15.3908 224C15.2035 224.417 13.961 226.247 13.7738 226.749C13.6547 227.055 12.8121 227.727 12.7781 228Z" fill="#221F1F"/>
<path d="M33.0837 260.654C32.6409 261.032 32.1166 261.303 31.5518 261.445C31.0177 261.548 30.469 261.548 29.9348 261.445C29.8562 261.413 29.7859 261.363 29.7294 261.299C29.6729 261.235 29.6317 261.16 29.6087 261.078C29.5857 260.996 29.5817 260.91 29.5969 260.826C29.6122 260.742 29.6462 260.663 29.6965 260.594L30.454 259.982C30.7172 259.794 30.9674 259.59 31.2029 259.369C31.2795 259.301 31.6539 259.037 32.1986 258.671C32.7433 258.305 33.4071 257.718 34.0879 257.08L35.1092 256.084C35.4496 255.743 35.7474 255.377 36.0538 255.054C36.6666 254.399 37.1431 253.76 37.475 253.352C38.7686 251.726 40.0282 250.033 41.1941 248.297C43.5892 244.715 45.7552 240.986 47.679 237.131C48.1045 236.28 48.5301 235.429 49.0322 234.578C50.6194 231.669 52.0263 228.664 53.2448 225.582C53.4684 225.077 53.6561 224.557 53.8065 224.025C53.9001 223.591 54.7937 221.293 55.6873 218.919C56.5809 216.544 57.4745 214.195 57.7043 213.659C58.8617 210.995 59.9085 208.281 60.9552 205.566C61.0714 205.17 61.2283 204.788 61.4233 204.425C61.8821 203.652 62.2315 202.818 62.4616 201.949C62.8616 200.766 63.2616 199.591 63.7041 198.425C63.9537 197.842 64.2379 197.273 64.5551 196.723C64.8105 196.221 65.0913 196.621 65.0743 196.817C65.0743 197.387 65.3296 197.004 65.4913 196.996C65.5163 196.983 65.544 196.976 65.5721 196.976C65.6002 196.976 65.6279 196.983 65.653 196.996C65.6186 197.388 65.5589 197.777 65.4743 198.162C65.3466 198.851 65.1679 199.77 64.9721 200.715C64.5807 202.596 64.1211 204.545 63.9935 204.927L62.3339 210.264C61.4829 212.944 60.5297 215.727 60.351 216.297C60.1389 216.877 59.8974 217.445 59.6276 218L58.0957 222.255C57.3383 224.306 56.5469 226.365 56.4703 226.51C55.8464 228.148 55.104 229.738 54.249 231.267C54.0704 231.572 53.9167 231.891 53.7895 232.22C52.5725 234.978 51.1938 237.667 49.73 240.314C48.9726 241.659 48.2747 243.046 47.4918 244.382C47.3471 244.62 47.1769 244.841 47.0237 245.08C46.8705 245.318 46.6322 245.659 46.445 245.931C44.5335 249.095 42.3946 252.115 40.0452 254.969C39.4003 255.707 38.7096 256.403 37.9772 257.054C37.0665 257.905 36.0112 258.697 35.6623 259.054C35.2611 259.35 34.8305 259.604 34.3773 259.811L33.6369 260.22C33.4347 260.34 33.2488 260.486 33.0837 260.654Z" fill="#221F1F"/>
<path d="M155.021 188.163C155.895 189.328 156.324 190.768 156.229 192.222C156.211 192.327 156.165 192.426 156.096 192.507C156.027 192.588 155.937 192.65 155.836 192.684C155.735 192.719 155.627 192.726 155.522 192.705C155.418 192.683 155.321 192.634 155.242 192.563C154.646 191.882 154.059 191.201 153.54 190.486C153.455 190.375 153.114 189.831 152.638 189.039C152.161 188.248 151.395 187.286 150.655 186.231C150.28 185.703 149.897 185.159 149.514 184.631C149.131 184.103 148.663 183.61 148.314 183.125C147.54 182.171 146.859 181.329 146.391 180.767C145.54 179.669 144.51 178.64 143.608 177.55L142.229 175.933L140.783 174.359C138.876 172.189 136.808 170.146 134.774 168.087C132.74 166.027 130.57 164.087 128.392 162.129C127.438 161.278 126.477 160.427 125.541 159.517C122.324 156.462 118.912 153.619 115.328 151.006C114.754 150.541 114.142 150.125 113.498 149.764C113.286 149.653 112.715 149.261 111.915 148.717C111.575 148.487 110.852 147.976 111.064 148.113V148.164L110.792 148.7C110.333 149.551 109.873 150.47 109.439 151.253C108.588 152.819 107.839 154.027 107.584 154.419C105.413 157.765 103.033 160.971 100.46 164.019C100.115 164.471 99.7271 164.89 99.303 165.27C98.3524 166.044 97.4698 166.898 96.6648 167.823L94.7925 169.593C94.1202 170.138 93.4479 170.674 92.767 171.193C92.0518 171.653 91.3037 172.06 90.5288 172.41C89.848 172.759 89.9416 172.146 90.1203 171.95C90.6565 171.397 90.0437 171.584 89.882 171.474C89.7203 171.363 89.7629 171.389 89.7629 171.321C90.1188 170.955 90.4938 170.608 90.8862 170.282C91.2833 169.949 91.6559 169.588 92.0011 169.201L93.2521 167.916C94.9032 166.061 96.452 163.976 96.7925 163.593L98.2137 161.772C99.0137 160.691 100.06 159.219 101.056 157.695C103.082 154.632 104.911 151.244 105.311 150.547C105.711 149.849 106.162 149.134 106.562 148.419C106.562 148.359 106.818 147.934 107.175 147.219C107.413 146.742 107.686 146.172 108.026 145.517C108.486 144.547 108.996 143.432 109.55 142.198C110.647 142.913 111.907 143.738 113.183 144.615L115.303 146.07C116.511 146.921 117.456 147.585 117.566 147.678C119.477 149.049 121.299 150.538 123.022 152.138C123.357 152.466 123.716 152.77 124.094 153.049C127.268 155.542 130.238 158.291 133.191 161.048L137.702 165.304C137.957 165.567 138.196 165.865 138.442 166.155C138.689 166.444 139.055 166.87 139.387 167.201C142.885 170.606 146 174.435 149.182 178.18C149.531 178.631 150.451 179.984 151.387 181.354L152.085 182.367C152.289 182.716 152.493 183.048 152.68 183.346C153.046 183.959 153.361 184.452 153.531 184.716C153.744 185.38 154.697 187.601 155.021 188.163Z" fill="#221F1F"/>
<path d="M111.005 162.206L106.554 166.12C106.001 166.571 105.516 167.082 104.963 167.516C102.982 168.989 100.922 170.353 98.7926 171.601C98.333 171.891 97.8735 172.171 97.4054 172.452C96.9373 172.733 96.4948 173.031 96.0267 173.303C94.8512 174.016 93.6084 174.612 92.3162 175.082C91.9077 175.218 91.9332 175.124 92.1885 174.835C92.5886 174.366 93.0239 173.928 93.4906 173.525C95.6438 171.822 97.6352 169.959 99.7798 168.291C100.434 167.776 101.043 167.207 101.601 166.588C102.188 166.001 102.724 165.354 103.303 164.742L104.239 163.755L105.09 162.725L105.984 161.695L106.792 160.597L107.797 159.261L108.733 157.882C108.98 157.533 109.235 157.193 109.49 156.861C109.745 156.529 109.967 156.155 110.214 155.814C110.682 155.108 111.201 154.419 111.601 153.678C111.907 153.099 112.171 152.504 112.452 151.925L113.303 150.18C113.433 149.921 113.58 149.67 113.745 149.431C114.064 148.901 114.494 148.445 115.005 148.095C115.064 148.095 115.116 148.002 115.158 147.985C115.201 147.968 115.226 148.036 115.26 148.257C115.294 148.478 115.337 148.827 115.362 149.261C115.707 151.98 115.38 154.741 114.409 157.304C113.652 159.19 112.49 160.886 111.005 162.274V162.206Z" fill="#221F1F"/>
<path d="M3.21251 197.456C2.98513 197.854 2.655 198.183 2.25671 198.409C1.85843 198.635 1.40666 198.75 0.948751 198.741C0.625356 198.741 0.0977084 198.29 0.208344 198.018C0.395183 197.486 0.614019 196.966 0.863648 196.46C1.00832 196.145 4.16568 191.933 5.23799 190.503C6.3103 189.073 7.40814 187.797 8.54854 186.495C10.8804 183.856 13.2207 181.235 15.6037 178.639C16.1313 178.061 16.693 177.516 17.3057 176.988C19.2887 175.176 21.1439 173.244 22.9651 171.278C23.2834 170.965 23.5686 170.62 23.8162 170.248C25.771 168.003 27.8419 165.861 30.0203 163.831C31.833 162.325 33.5861 160.776 35.3903 159.27C35.6203 159.025 35.8874 158.818 36.1818 158.657C36.8225 158.332 37.3992 157.894 37.8839 157.363C38.6328 156.7 39.3987 156.044 40.1902 155.431C40.6083 155.146 41.0495 154.895 41.5093 154.683C41.9178 154.47 42.037 154.955 41.9604 155.1C41.7221 155.508 42.1306 155.406 42.2838 155.517C42.341 155.548 42.3882 155.595 42.4199 155.653C42.4199 155.704 41.5689 156.844 40.5732 158.036C39.5774 159.227 38.5988 160.461 38.369 160.682L35.3223 163.831C33.7819 165.44 32.1904 167.133 31.8755 167.499C31.5336 167.86 31.1636 168.193 30.7692 168.495C30.5734 168.64 26.097 173.601 25.9183 173.806C24.9963 174.844 23.9947 175.808 22.9226 176.691C22.7056 176.864 22.5061 177.057 22.3269 177.269C20.7354 179.039 19.0333 180.673 17.3823 182.427C16.5313 183.278 15.7398 184.214 14.9313 185.124C14.7867 185.286 14.6079 185.422 14.4462 185.575C14.2845 185.729 14.0292 185.95 13.8505 186.154C11.9442 188.316 9.93573 190.409 8.14003 192.648C7.73154 193.167 5.41671 195.354 4.95715 195.967C4.68482 196.35 3.39974 197.107 3.21251 197.456Z" fill="#221F1F"/>
<path d="M99.8904 115.619C99.1115 115.608 98.3402 115.464 97.6096 115.194C97.3316 115.138 97.0605 115.052 96.8011 114.938C96.0786 114.44 95.4086 113.87 94.8011 113.236C94.5383 113.014 94.2531 112.82 93.9501 112.657C93.5927 112.419 93.2437 112.215 92.8097 111.874C92.6735 111.772 92.6906 111.874 92.8097 111.789C92.9289 111.704 93.1416 111.364 93.4565 111.177C93.9607 110.826 94.5471 110.612 95.1586 110.555C95.4125 110.522 95.6704 110.543 95.916 110.615C96.139 110.672 96.3536 110.758 96.5543 110.87C96.9968 111.194 97.5415 111.117 97.933 111.245L98.5627 111.466C98.801 111.551 99.0478 111.628 99.3031 111.696C99.618 111.792 99.9394 111.866 100.265 111.917C100.777 112.023 101.302 112.049 101.822 111.994C102.019 111.966 102.213 111.921 102.401 111.857C102.602 111.808 102.807 111.777 103.014 111.764H103.303C103.526 111.774 103.748 111.8 103.967 111.84H104.018C103.939 111.981 103.885 112.133 103.856 112.291C103.652 112.734 103.456 113.296 103.167 113.806C102.871 114.269 102.486 114.668 102.035 114.981C101.393 115.43 100.645 115.702 99.8648 115.772L99.8904 115.619Z" fill="#221F1F"/>
<path d="M54.7181 62.1137C54.5394 62.5903 53.9522 62.4371 53.1267 61.9009C52.7818 61.6235 52.5125 61.2634 52.3438 60.8542C52.3678 60.5293 52.4219 60.2073 52.5054 59.8925C52.565 59.7308 54.1479 57.9181 54.6926 57.2628C55.227 56.6434 55.8326 56.0892 56.4968 55.6117C57.8778 54.5564 59.3341 53.6035 60.8541 52.7607C61.2128 52.5801 61.5893 52.4375 61.9775 52.3352C62.6535 52.1898 63.3211 52.008 63.9775 51.7905C64.6498 51.6288 65.2966 51.382 65.9689 51.2033C66.204 51.1739 66.4271 51.0829 66.6157 50.9395C66.8596 50.8037 67.1241 50.7088 67.3986 50.6586C67.8768 50.5624 68.3598 50.4914 68.8454 50.4459C69.3393 50.3836 69.8378 50.3665 70.3347 50.3948C70.6194 50.3951 70.9038 50.415 71.1858 50.4544C71.79 50.582 72.3602 50.7948 72.9389 50.9395C73.5187 51.0796 74.0876 51.2617 74.641 51.4842C74.7942 51.5437 74.9814 51.5267 75.092 51.7139C75.3559 52.1565 75.7133 52.1309 76.0367 52.2586C76.4962 52.4136 76.9405 52.6102 77.3643 52.8458C77.5747 53.0201 77.7557 53.227 77.9005 53.4586C78.0537 53.6628 77.7728 54.1735 77.6877 54.216C77.4409 54.3352 77.526 54.633 77.475 54.8628C77.4585 54.9439 77.4357 55.0236 77.4069 55.1011C76.4269 55.3042 75.4348 55.4435 74.4368 55.5181L73.8495 55.4585C73.4317 55.4071 73.0109 55.3843 72.59 55.3905C72.1304 55.3905 71.6624 55.3905 71.2964 55.3905C70.9305 55.3905 70.6411 55.467 70.5475 55.4926C70.344 55.4996 70.1413 55.4649 69.9518 55.3905C69.48 55.4393 69.0131 55.5276 68.5561 55.6543C67.8923 55.8075 67.2625 56.0713 67.2114 56.0543C66.6668 56.1138 66.2157 56.4628 65.5859 56.2841C65.4751 56.2697 65.3629 56.297 65.271 56.3606C64.42 56.7606 63.4924 57.05 62.5988 57.4755C62.1437 57.7062 61.7082 57.9738 61.2967 58.2755C61.2092 58.3155 61.118 58.3469 61.0244 58.3691C60.9057 58.4004 60.7914 58.4461 60.6839 58.5053C59.6174 59.1897 58.6071 59.958 57.6627 60.8031C57.4585 61.0159 56.0713 61.5946 55.833 61.8669C55.5947 62.1392 54.7947 61.918 54.7181 62.1137Z" fill="#221F1F"/>
<path d="M88.2484 52.6588C88.1633 52.9822 87.8059 52.6588 87.2272 51.8674C86.979 51.4995 86.7842 51.0983 86.6484 50.6759C86.6494 50.4187 86.675 50.1622 86.725 49.9099C87.1696 49.3961 87.6595 48.9233 88.1888 48.4972C88.5437 48.1934 88.9582 47.9672 89.4058 47.8334C90.2569 47.5355 91.1675 47.2292 92.0696 46.9824C92.2773 46.9397 92.4916 46.9397 92.6993 46.9824C93.4039 47.0909 94.1235 47.0474 94.8099 46.8547C94.9205 46.8547 95.0397 46.8547 95.1418 46.693C95.295 46.4122 97.2098 46.2845 97.4566 46.3951C98.0779 46.6504 98.6907 46.8122 99.2864 47.0419C99.363 47.0419 99.4566 47.0419 99.5332 47.1951C99.6949 47.5866 99.8821 47.527 100.061 47.5696C100.319 47.6202 100.567 47.7153 100.793 47.8504C100.929 47.9877 101.039 48.1493 101.116 48.327C101.167 48.5892 101.143 48.8605 101.048 49.11C100.929 49.2802 100.988 49.5525 100.971 49.7823C100.977 49.8645 100.977 49.9469 100.971 50.0291C100.509 50.4328 99.9972 50.776 99.4481 51.0503C98.7468 51.1351 98.0527 51.2716 97.3715 51.4589C97.2694 51.5099 97.1503 51.4589 97.0396 51.3737C96.929 51.2886 95.5673 51.8248 95.5163 51.8333C95.2184 51.8333 94.9461 52.029 94.5971 51.7397C94.5687 51.7233 94.5364 51.7146 94.5035 51.7146C94.4707 51.7146 94.4384 51.7233 94.4099 51.7397C93.9027 51.8626 93.3829 51.9255 92.861 51.9269C92.5999 51.9786 92.3436 52.0527 92.0951 52.1482C92.044 52.1482 91.9845 52.1482 91.9334 52.1482C91.8687 52.136 91.8023 52.136 91.7377 52.1482C91.1196 52.2861 90.5238 52.5095 89.9675 52.812C89.8484 52.8886 89.0484 52.812 88.9122 52.9141C88.776 53.0163 88.2824 52.5227 88.2484 52.6588Z" fill="#221F1F"/>
<path d="M44.8804 180.716C43.7217 180.632 42.5684 180.488 41.4251 180.282C40.9911 180.214 40.5741 180.282 40.123 180.171L38.872 179.848C38.1058 179.69 37.4038 179.308 36.8551 178.75C36.35 178.236 36.0067 177.585 35.8678 176.878C35.8214 176.547 35.8214 176.212 35.8678 175.882C35.8678 175.805 35.8678 175.712 35.8678 175.661L35.9104 175.516L35.9785 175.235C36.1572 174.571 36.2423 173.899 36.3785 173.244C36.4465 172.812 36.5431 172.386 36.6678 171.967C36.8145 171.535 36.9849 171.112 37.1784 170.699C37.3061 170.435 37.1785 170.469 37.2806 170.699C37.3827 170.929 37.7997 171.337 38.1316 171.822C38.6295 172.633 39.0186 173.506 39.289 174.418C39.3401 174.639 39.3912 174.852 39.4337 175.073L39.4763 175.397V175.558V175.686H39.2209C39.2209 175.371 39.2209 175.601 39.2209 175.533H39.3571H39.5443H39.9188C40.1741 175.533 40.4294 175.533 40.6932 175.533C41.8744 175.616 43.0505 175.761 44.2165 175.967L46.4037 176.375C47.5101 176.58 48.6164 176.878 49.7143 177.09C50.5838 177.186 51.44 177.377 52.2674 177.661C52.4461 177.746 52.6163 177.822 52.795 177.924C53.034 178.056 53.2544 178.219 53.4503 178.409C53.5367 178.497 53.6307 178.577 53.7312 178.648H53.8163C53.549 178.663 53.2866 178.726 53.0418 178.835C52.2419 179.09 51.4504 179.439 50.6674 179.771C49.9136 180.07 49.1402 180.318 48.3526 180.512C47.2346 180.759 46.0935 180.888 44.9484 180.894L44.8804 180.716Z" fill="#221F1F"/>
<path d="M69.7888 129.789C69.1107 129.746 68.4412 129.614 67.7974 129.397C67.435 129.266 67.0824 129.11 66.7421 128.929C66.3984 128.733 66.0761 128.502 65.7804 128.24C65.3541 127.921 64.9733 127.546 64.6485 127.125C64.1667 126.353 63.875 125.478 63.7975 124.572C63.7413 123.841 63.7413 123.107 63.7975 122.376C63.8269 121.809 63.8269 121.241 63.7975 120.674C63.7975 120.317 63.7379 119.968 63.7464 119.593C63.7549 119.219 63.7464 118.844 63.7464 118.436C63.7464 118.18 63.6954 118.24 63.823 118.436C63.9507 118.631 64.4358 118.793 64.8102 119.142C65.4305 119.743 65.9352 120.453 66.2995 121.236C66.6034 121.885 66.7934 122.582 66.8612 123.295C66.8864 123.625 66.998 123.942 67.1846 124.214C67.3609 124.426 67.5484 124.627 67.7463 124.819C67.8542 124.94 67.9708 125.054 68.0952 125.159C68.2144 125.261 68.291 125.329 68.4186 125.423C68.7221 125.616 69.0516 125.765 69.3973 125.865C69.9333 126.025 70.4833 126.134 71.0398 126.189C71.9334 126.282 72.9036 126.367 73.8653 126.385C74.6302 126.33 75.3989 126.39 76.1461 126.563C76.3161 126.606 76.4815 126.666 76.6397 126.742C76.8609 126.842 77.0626 126.98 77.2354 127.15L77.4652 127.372H77.5418C77.3181 127.373 77.0963 127.413 76.8865 127.491C76.2264 127.725 75.5976 128.04 75.0142 128.427C74.4104 128.776 73.7818 129.081 73.1334 129.338C72.0583 129.738 70.9188 129.937 69.7718 129.925L69.7888 129.789Z" fill="#221F1F"/>
<path d="M86.8191 135.27C86.3936 134.419 86.0532 133.492 85.6787 132.649C85.5426 132.343 85.3213 132.096 85.1851 131.798C84.7776 130.703 84.1877 129.684 83.4405 128.785C83.0746 128.409 82.6561 128.088 82.198 127.832C81.9001 127.662 81.5937 127.5 81.2789 127.338C80.964 127.177 80.6321 126.981 80.2831 126.811C80.0704 126.692 80.0874 126.768 80.2831 126.734C80.4789 126.7 80.8789 126.394 81.364 126.283C82.2385 126.066 83.1561 126.095 84.0152 126.367C84.8743 126.639 85.6415 127.143 86.2319 127.824C86.9532 128.563 87.6295 129.344 88.2574 130.164C88.8127 131.083 89.2746 132.055 89.6361 133.066L90.2658 134.845C90.5414 135.724 90.8916 136.578 91.3126 137.398C91.65 137.939 92.053 138.436 92.5126 138.879C92.6062 138.981 92.7168 139.057 92.8275 139.16C93.0517 139.367 93.3038 139.541 93.5764 139.679H93.653H93.5253C93.3488 139.746 93.1665 139.798 92.9806 139.832C92.1347 139.947 91.2741 139.792 90.5211 139.389C89.7957 139.005 89.1398 138.501 88.5808 137.9C87.8628 137.111 87.2453 136.236 86.7425 135.296L86.8191 135.27Z" fill="#221F1F"/>
<path d="M89.7119 138.98C90.4353 138.98 93.3373 140.453 96.2053 140.521C99.2776 140.597 106.75 134.495 106.75 134.682C106.75 138.087 106.018 147.652 94.7075 143.669C92.0097 142.725 91.2523 140.299 89.7119 138.98Z" fill="#221F1F"/>
<path d="M88.8267 140.333C89.4502 141.03 90.0355 141.76 90.5799 142.52C91.3354 143.492 92.2977 144.282 93.3968 144.835C93.6718 144.974 93.9562 145.094 94.2479 145.193L95.0308 145.423C95.55 145.567 96.0436 145.754 96.5967 145.857L98.2392 146.137C98.8094 146.137 99.3881 146.18 99.9413 146.197C100.494 146.214 101.133 146.052 101.729 145.959L102.622 145.661C102.919 145.569 103.205 145.443 103.473 145.286L104.324 144.801C104.579 144.623 104.809 144.401 105.056 144.197L105.405 143.882C105.516 143.763 105.609 143.644 105.711 143.525C105.814 143.406 106.103 143.048 106.282 142.801C106.919 141.817 107.401 140.741 107.711 139.61C107.796 139.338 107.847 139.065 107.907 138.759C107.907 138.648 107.992 138.427 108.035 138.172L108.12 137.448C108.171 136.972 108.265 136.47 108.273 136.019L108.324 134.648C108.282 134.35 108.205 134.087 108.137 133.797L108.094 133.593C108.094 133.593 108.094 133.508 108.094 133.499H108.035L107.796 133.397L107.677 133.346H107.618L107.396 133.721L107.243 133.568L106.809 133.193C106.477 132.955 105.737 133.44 105.107 133.95L103.082 135.406C101.772 136.337 100.408 137.19 98.9967 137.959C98.3587 138.306 97.689 138.591 96.9967 138.81C96.7608 138.889 96.5136 138.929 96.2648 138.929C95.9114 138.916 95.559 138.882 95.2095 138.827C94.462 138.706 93.725 138.527 93.0054 138.291L91.8564 137.916C91.4479 137.78 91.0735 137.635 90.5203 137.491C90.3076 137.44 90.1459 137.601 89.9331 137.891C89.777 138.231 89.7209 138.609 89.7714 138.98C89.7714 139.184 89.7714 139.38 89.7714 139.576C89.7881 139.723 89.7881 139.871 89.7714 140.018C89.7437 140.159 89.7239 140.301 89.7118 140.444C89.7118 140.529 89.7118 140.58 89.7118 140.58C89.9671 140.648 90.3756 140.793 90.7671 140.921L92.0011 141.329C92.8717 141.608 93.7622 141.822 94.6649 141.967C95.1412 142.042 95.6214 142.091 96.1031 142.112C96.6804 142.117 97.2549 142.031 97.8052 141.857C98.7035 141.571 99.5727 141.201 100.401 140.75C101.927 139.914 103.402 138.987 104.818 137.976L104.631 138.767C104.415 139.561 104.082 140.318 103.643 141.014C103.216 141.637 102.643 142.145 101.974 142.495C101.305 142.845 100.56 143.026 99.8052 143.023L98.5456 142.98L97.2435 142.759C96.8095 142.682 96.3925 142.512 95.9244 142.393L95.2691 142.197C95.0917 142.141 94.9182 142.073 94.75 141.993C94.067 141.633 93.4714 141.128 93.0054 140.512C92.3859 139.653 91.7152 138.831 90.9969 138.053C90.6395 137.653 88.6565 140.18 88.8267 140.333Z" fill="#232020"/>
<path d="M151.659 268.799C151.659 268.679 151.659 268.552 151.659 268.433C151.581 267.786 151.541 267.135 151.54 266.484V180.137H131.711V272.96H145.106C145.721 272.961 146.335 273.001 146.945 273.079C147.072 273.088 147.2 273.088 147.328 273.079C148.672 273.079 149.761 272.228 149.761 271.207C149.761 270.186 148.672 269.343 147.328 269.343H146.962C146.315 269.425 145.664 269.465 145.013 269.462H135.166V183.6H148.068V266.586C148.067 267.198 148.027 267.809 147.949 268.416C147.94 268.543 147.94 268.671 147.949 268.799C147.949 270.143 148.8 271.233 149.821 271.233C150.842 271.233 151.659 270.143 151.659 268.799Z" fill="#232020"/>
<path d="M183.573 269.36C183.582 269.264 183.582 269.167 183.573 269.071C183.495 268.567 183.455 268.058 183.454 267.548V203.515H163.625V272.96H178.093C178.572 272.961 179.05 273.001 179.522 273.079C179.622 273.088 179.721 273.088 179.82 273.079C180.076 273.097 180.333 273.061 180.575 272.975C180.816 272.889 181.038 272.754 181.225 272.579C181.412 272.404 181.562 272.192 181.664 271.957C181.766 271.722 181.819 271.468 181.819 271.211C181.819 270.955 181.766 270.701 181.664 270.466C181.562 270.23 181.412 270.019 181.225 269.843C181.038 269.668 180.816 269.534 180.575 269.447C180.333 269.361 180.076 269.326 179.82 269.343H179.531C179.03 269.426 178.524 269.466 178.016 269.462H167.089V206.979H179.999V267.658C179.998 268.134 179.958 268.61 179.88 269.079C179.871 269.181 179.871 269.284 179.88 269.386C179.863 269.642 179.898 269.898 179.984 270.14C180.07 270.382 180.205 270.603 180.38 270.79C180.555 270.978 180.767 271.127 181.002 271.229C181.238 271.332 181.491 271.384 181.748 271.384C182.004 271.384 182.258 271.332 182.493 271.229C182.729 271.127 182.941 270.978 183.116 270.79C183.291 270.603 183.426 270.382 183.512 270.14C183.598 269.898 183.633 269.642 183.616 269.386L183.573 269.36Z" fill="#232020"/>
<path d="M216.857 268.68C216.865 268.55 216.865 268.419 216.857 268.288C216.781 267.61 216.744 266.928 216.746 266.246V174.767H196.908V272.961H210.099C210.742 272.962 211.385 273.001 212.023 273.08H212.431C213.844 273.08 214.984 272.229 214.984 271.208C214.984 270.186 213.835 269.344 212.431 269.344H212.048C211.368 269.426 210.683 269.466 209.997 269.463H200.363V178.222H213.257V266.348C213.258 266.991 213.221 267.633 213.146 268.271C213.138 268.407 213.138 268.544 213.146 268.68C213.146 270.093 213.997 271.233 215.018 271.233C216.04 271.233 216.857 270.093 216.857 268.68Z" fill="#232020"/>
<path d="M250.822 268.969C250.831 268.858 250.831 268.747 250.822 268.637C250.747 268.055 250.71 267.47 250.712 266.884V190.579H230.874V272.892H244.763C245.315 272.895 245.867 272.932 246.414 273.003C246.53 273.011 246.647 273.011 246.763 273.003C247.032 273.043 247.306 273.025 247.568 272.95C247.829 272.875 248.071 272.744 248.278 272.567C248.484 272.39 248.649 272.17 248.763 271.923C248.876 271.675 248.935 271.407 248.935 271.135C248.935 270.863 248.876 270.594 248.763 270.346C248.649 270.099 248.484 269.879 248.278 269.702C248.071 269.525 247.829 269.394 247.568 269.319C247.306 269.244 247.032 269.226 246.763 269.266H246.431C245.85 269.344 245.264 269.384 244.678 269.386H234.329V194.043H247.231V266.977C247.232 267.529 247.195 268.081 247.12 268.628C247.112 268.742 247.112 268.855 247.12 268.969C247.08 269.238 247.098 269.512 247.173 269.774C247.248 270.035 247.379 270.277 247.556 270.483C247.733 270.69 247.953 270.855 248.2 270.968C248.448 271.082 248.716 271.141 248.988 271.141C249.26 271.141 249.529 271.082 249.776 270.968C250.024 270.855 250.243 270.69 250.421 270.483C250.598 270.277 250.729 270.035 250.804 269.774C250.879 269.512 250.897 269.238 250.856 268.969H250.822Z" fill="#232020"/>
<path d="M263.962 269.624C263.874 269.616 263.786 269.616 263.698 269.624C263.247 269.709 262.788 269.752 262.328 269.752H119.847C119.416 269.751 118.986 269.711 118.562 269.633C118.472 269.62 118.38 269.62 118.29 269.633C117.803 269.721 117.364 269.977 117.047 270.357C116.73 270.736 116.557 271.215 116.557 271.709C116.557 272.204 116.73 272.682 117.047 273.062C117.364 273.441 117.803 273.697 118.29 273.786H118.545C119 273.701 119.461 273.658 119.924 273.658H262.396C262.831 273.658 263.264 273.701 263.69 273.786C263.78 273.795 263.872 273.795 263.962 273.786C264.448 273.697 264.888 273.441 265.205 273.062C265.522 272.682 265.695 272.204 265.695 271.709C265.695 271.215 265.522 270.736 265.205 270.357C264.888 269.977 264.448 269.721 263.962 269.633V269.624Z" fill="#232020"/>
<path d="M133.695 269.837C133.703 269.784 133.703 269.729 133.695 269.675C133.615 269.399 133.575 269.112 133.575 268.824V182.494C133.577 182.229 133.617 181.965 133.695 181.711C133.703 181.655 133.703 181.598 133.695 181.541C133.695 180.971 132.844 180.503 131.822 180.503C130.801 180.503 129.959 180.971 129.959 181.541C129.954 181.595 129.954 181.649 129.959 181.703C130.042 181.979 130.082 182.266 130.078 182.554V268.892C130.079 269.155 130.041 269.415 129.967 269.667C129.959 269.723 129.959 269.781 129.967 269.837C129.967 270.407 130.818 270.875 131.831 270.875C132.844 270.875 133.695 270.407 133.695 269.837Z" fill="#232020"/>
<path d="M198.723 269.361C198.727 269.307 198.727 269.253 198.723 269.199C198.65 268.921 198.613 268.635 198.612 268.348V177.286C198.61 176.999 198.644 176.713 198.714 176.435C198.722 176.379 198.722 176.321 198.714 176.265C198.714 175.652 197.923 175.167 196.952 175.167C195.982 175.167 195.191 175.652 195.191 176.265C195.182 176.318 195.182 176.373 195.191 176.427C195.263 176.704 195.301 176.99 195.301 177.278V268.339C195.305 268.627 195.267 268.913 195.191 269.19C195.183 269.247 195.183 269.304 195.191 269.361C195.191 269.973 195.982 270.459 196.961 270.459C197.94 270.459 198.723 269.931 198.723 269.361Z" fill="#232020"/>
<path d="M233.053 269.684C233.057 269.639 233.057 269.593 233.053 269.548C232.978 269.311 232.941 269.064 232.942 268.816V192.869C232.943 192.635 232.978 192.403 233.044 192.179C233.053 192.131 233.053 192.082 233.044 192.035C233.044 191.533 232.253 191.124 231.283 191.124C230.312 191.124 229.521 191.533 229.521 192.035C229.513 192.083 229.513 192.131 229.521 192.179C229.596 192.416 229.633 192.663 229.631 192.911V268.85C229.633 269.084 229.595 269.317 229.521 269.539C229.517 269.587 229.517 269.636 229.521 269.684C229.521 270.195 230.304 270.603 231.283 270.603C232.261 270.603 233.053 270.212 233.053 269.684Z" fill="#232020"/>
<path d="M165.284 270.961C165.289 270.921 165.289 270.881 165.284 270.842C165.21 270.64 165.172 270.427 165.174 270.212V205.379C165.173 205.175 165.211 204.973 165.284 204.783C165.289 204.744 165.289 204.704 165.284 204.664C165.284 204.23 164.501 203.881 163.523 203.881C162.544 203.881 161.761 204.23 161.761 204.664C161.757 204.704 161.757 204.744 161.761 204.783C161.835 204.982 161.872 205.193 161.872 205.405V270.212C161.873 270.413 161.835 270.612 161.761 270.799C161.757 270.841 161.757 270.884 161.761 270.927C161.761 271.352 162.552 271.701 163.523 271.701C164.493 271.701 165.284 271.386 165.284 270.961Z" fill="#232020"/>
<path d="M77.457 79.6789C77.457 81.5001 75.5507 83.2448 73.7209 82.7342C73.06 82.5694 72.4693 82.1969 72.0358 81.6714C71.6023 81.146 71.3487 80.4953 71.3125 79.8151C71.3474 79.009 71.6816 78.245 72.2497 77.6722C72.8178 77.0993 73.5791 76.7589 74.3848 76.7173C77.4825 76.4279 77.457 79.5768 77.457 79.6789Z" fill="#221F1F"/>
<path d="M105.362 73.0668C105.362 74.888 103.456 76.6241 101.626 76.122C100.964 75.9565 100.374 75.5824 99.9417 75.0551C99.5095 74.5278 99.2585 73.8754 99.2259 73.1944C99.2203 72.819 99.2891 72.4462 99.4283 72.0975C99.5676 71.7488 99.7746 71.4312 100.037 71.163C100.3 70.8947 100.613 70.6812 100.959 70.5347C101.305 70.3882 101.676 70.3116 102.051 70.3094C102.454 70.2491 102.864 70.2747 103.256 70.3844C103.648 70.4941 104.012 70.6854 104.325 70.9458C104.638 71.2062 104.892 71.5298 105.07 71.8954C105.249 72.2609 105.348 72.6601 105.362 73.0668Z" fill="#221F1F"/>
</g>
<defs>
<clipPath id="clip0_203_6983">
<rect width="265.987" height="273.024" fill="white" transform="translate(0.000976562 0.546875)"/>
</clipPath>
</defs>
</svg>
