<svg width="60" height="60" viewBox="0 0 60 60" fill="none" xmlns="http://www.w3.org/2000/svg">
<rect x="0.000976562" width="59.1083" height="59.1083" rx="13.5949" fill="black"/>
<path d="M14.4483 39.4126V18.7784H22.3473C23.8384 18.7784 25.0777 19.0135 26.0651 19.4837C27.0592 19.9472 27.8014 20.5819 28.2917 21.3879C28.7888 22.194 29.0373 23.1074 29.0373 24.1284C29.0373 24.968 28.8761 25.6867 28.5537 26.2845C28.2313 26.8756 27.798 27.3559 27.254 27.7253C26.7099 28.0947 26.102 28.36 25.4303 28.5212V28.7227C26.1625 28.763 26.8644 28.988 27.5361 29.3978C28.2145 29.8008 28.7686 30.3717 29.1985 31.1106C29.6284 31.8494 29.8433 32.7428 29.8433 33.7906C29.8433 34.8586 29.5847 35.8191 29.0675 36.6721C28.5503 37.5184 27.7712 38.1868 26.73 38.6771C25.6889 39.1674 24.3792 39.4126 22.8007 39.4126H14.4483ZM18.1862 36.2893H22.2063C23.5631 36.2893 24.5404 36.0307 25.1382 35.5135C25.7427 34.9896 26.0449 34.3179 26.0449 33.4984C26.0449 32.8872 25.8938 32.3364 25.5915 31.8461C25.2893 31.349 24.8594 30.9594 24.3019 30.6773C23.7444 30.3885 23.0794 30.2441 22.307 30.2441H18.1862V36.2893ZM18.1862 27.554H21.8838C22.5287 27.554 23.1097 27.4365 23.6269 27.2014C24.1441 26.9596 24.5504 26.6204 24.846 26.1838C25.1482 25.7405 25.2994 25.2165 25.2994 24.612C25.2994 23.8127 25.0173 23.1545 24.453 22.6373C23.8955 22.1201 23.066 21.8615 21.9644 21.8615H18.1862V27.554ZM41.2359 18.7784H44.9436V33.2868C44.9369 34.6168 44.6548 35.762 44.0973 36.7225C43.5398 37.6763 42.7606 38.4118 41.7598 38.929C40.7657 39.4395 39.6071 39.6947 38.2839 39.6947C37.0748 39.6947 35.9867 39.4798 35.0195 39.0499C34.059 38.6133 33.2966 37.9685 32.7324 37.1154C32.1682 36.2624 31.8861 35.2011 31.8861 33.9316H35.6038C35.6106 34.4891 35.7315 34.9694 35.9666 35.3724C36.2084 35.7754 36.5408 36.0844 36.964 36.2993C37.3872 36.5143 37.8741 36.6217 38.4249 36.6217C39.0227 36.6217 39.5298 36.4975 39.9463 36.249C40.3627 35.9937 40.6784 35.6176 40.8934 35.1205C41.115 34.6235 41.2292 34.0123 41.2359 33.2868V18.7784Z" fill="white"/>
</svg>
